<?xml version="1.0" standalone="no"?>
<!DOCTYPE svg PUBLIC "-//W3C//DTD SVG 20010904//EN"
 "http://www.w3.org/TR/2001/REC-SVG-20010904/DTD/svg10.dtd">
<svg version="1.0" xmlns="http://www.w3.org/2000/svg"
 width="86.000000pt" height="89.000000pt" viewBox="0 0 86.000000 89.000000"
 preserveAspectRatio="xMidYMid meet">
<metadata>
Created by potrace 1.10, written by Peter Selinger 2001-2011
</metadata>
<g transform="translate(0.000000,89.000000) scale(0.050000,-0.050000)"
fill="#000000" stroke="none">
<path d="M1414 1661 c-127 -195 -133 -197 -247 -99 -171 149 -335 191 -506
132 -81 -28 -274 -246 -292 -329 -6 -30 -20 -72 -32 -92 -11 -20 -28 -83 -38
-140 -10 -57 -27 -143 -37 -193 -9 -49 -15 -180 -12 -290 3 -144 -4 -216 -25
-258 -34 -69 -106 -272 -96 -272 4 0 28 42 53 93 71 147 99 167 243 168 120 1
401 51 525 95 33 12 110 35 170 52 376 106 493 531 236 856 -62 79 -58 116 16
178 43 35 148 178 148 201 0 41 -35 7 -106 -102z m-554 -107 c0 10 33 19 74
20 65 2 69 -1 35 -20 -64 -37 -169 -37 -169 0 0 25 6 26 30 6 17 -14 30 -17
30 -6z m271 -109 c66 -37 -139 -210 -211 -178 -51 21 -124 30 -280 32 l-150 2
70 59 c59 49 64 59 30 60 -36 0 -35 4 10 30 55 32 472 28 531 -5z m99 -125
c-7 -11 -2 -20 11 -20 16 0 19 -22 10 -70 -7 -38 -6 -70 3 -70 9 0 18 -41 21
-91 3 -54 -2 -87 -13 -80 -11 6 -25 3 -32 -9 -7 -11 -3 -20 9 -20 12 0 21 -44
21 -102 0 -83 -6 -100 -30 -91 -16 7 -30 2 -30 -9 0 -11 -9 -15 -20 -8 -11 7
-20 55 -21 106 0 52 -13 147 -29 213 -15 65 -23 127 -16 138 7 10 2 13 -11 5
-13 -8 -23 -5 -23 7 0 11 9 21 20 21 11 0 40 23 64 50 42 48 91 71 66 30z
m-671 -95 c1 39 40 49 43 10 1 -17 4 -17 10 -3 13 31 348 5 348 -26 0 -6 -23
-28 -51 -51 -31 -24 -47 -52 -40 -70 10 -26 7 -27 -20 -4 -18 15 -52 29 -76
32 -73 10 -253 9 -270 -1 -30 -19 -61 20 -50 63 6 25 20 40 29 34 10 -6 18 4
18 24 0 31 3 31 29 -4 27 -35 30 -36 30 -4z m529 -88 c-4 -7 0 -88 9 -180 10
-98 10 -177 -1 -190 -11 -14 -10 -28 3 -36 40 -25 24 -76 -21 -65 -29 8 -38 3
-31 -16 6 -15 -1 -31 -14 -36 -13 -5 -25 5 -27 23 -1 18 -8 114 -15 213 -7 99
-17 194 -22 212 -15 50 67 143 100 113 15 -14 23 -31 19 -38z m-288 -97 c-35
-66 -95 -104 -133 -84 -21 11 -99 18 -174 16 -124 -3 -130 -1 -71 19 42 14 57
27 42 37 -58 35 10 54 176 48 150 -5 173 -11 160 -36z m556 -64 c-1 -72 -4
-79 -26 -50 -25 35 -18 134 11 134 9 0 16 -38 15 -84z m-421 8 c17 -86 22
-344 6 -335 -10 6 -37 -13 -60 -42 -44 -57 -76 -52 -51 7 9 20 14 63 12 96
-16 223 -18 310 -5 302 8 -5 28 -1 43 8 33 20 45 13 55 -36z m-238 -62 c4 -1
-22 -29 -57 -62 -35 -33 -74 -54 -85 -47 -12 7 -56 12 -98 10 -56 -2 -77 5
-77 27 0 26 52 41 106 32 10 -2 12 5 5 16 -20 33 99 47 206 24z m104 -156 c1
-147 -7 -256 -15 -221 -5 19 -22 35 -38 35 -20 0 -25 14 -18 45 6 25 -1 88
-17 140 -16 52 -22 91 -13 85 8 -5 27 4 41 21 35 43 60 0 60 -105z m-241 -4
c0 -7 -18 -24 -41 -38 -22 -14 -35 -35 -27 -47 9 -14 -8 -17 -54 -7 -83 18
-82 17 -67 56 21 54 189 86 189 36z m127 -37 c13 -69 6 -134 -15 -139 -8 -2
-28 -20 -43 -40 -25 -32 -28 -26 -28 59 -1 142 65 233 86 120z m-280 -135
c-25 -18 -40 -20 -45 -5 -4 12 9 34 30 49 25 19 40 20 45 5 4 -12 -10 -34 -30
-49z m165 -8 c-9 -84 -29 -109 -64 -81 -36 31 -35 49 4 110 40 60 69 46 60
-29z"/>
</g>
</svg>
