<?xml version="1.0" standalone="no"?>
<!DOCTYPE svg PUBLIC "-//W3C//DTD SVG 20010904//EN"
 "http://www.w3.org/TR/2001/REC-SVG-20010904/DTD/svg10.dtd">
<svg version="1.0" xmlns="http://www.w3.org/2000/svg"
 width="300.000000pt" height="262.000000pt" viewBox="0 0 300.000000 262.000000"
 preserveAspectRatio="xMidYMid meet">
<metadata>
Created by potrace 1.10, written by Peter Selinger 2001-2011
</metadata>
<g transform="translate(0.000000,262.000000) scale(0.100000,-0.100000)"
fill="#000000" stroke="none">
<path d="M1260 2564 c-6 -14 -10 -39 -10 -55 0 -19 -10 -39 -25 -55 -14 -14
-26 -33 -27 -42 -2 -34 2 -53 11 -47 6 3 -2 -16 -15 -42 l-26 -48 24 28 c22
25 68 38 68 19 0 -5 6 -17 14 -28 13 -17 14 -16 7 17 -5 20 -12 43 -17 50 -6
12 -5 12 8 1 28 -22 34 37 8 80 -13 23 -19 46 -16 69 3 19 6 34 7 34 1 0 3 10
4 23 3 29 -3 28 -15 -4z"/>
<path d="M1163 2248 c-6 -7 -13 -31 -16 -53 -4 -22 -10 -53 -13 -69 -6 -26 -5
-28 17 -21 19 5 21 4 9 -5 -12 -9 -10 -10 10 -4 14 4 30 8 35 11 6 2 31 -7 56
-19 l45 -23 1 81 c2 96 -9 120 -47 105 -18 -7 -20 -10 -7 -10 9 -1 17 -4 17
-9 0 -4 -19 -6 -41 -4 -29 3 -40 1 -35 -7 4 -6 22 -11 41 -11 35 0 44 -7 50
-40 3 -18 0 -20 -18 -14 -12 4 -42 7 -67 6 -35 0 -41 2 -26 10 10 6 39 8 65 5
37 -5 41 -4 21 4 -14 6 -42 8 -62 6 -33 -4 -36 -3 -23 10 9 8 12 19 9 25 -4 6
1 17 11 25 18 12 18 13 -2 13 -11 0 -25 -6 -30 -12z m81 -110 c-4 -6 1 -8 14
-4 17 6 19 3 15 -14 -3 -11 -10 -20 -15 -20 -5 0 -6 5 -2 11 4 8 0 9 -15 4
-12 -4 -21 -2 -21 4 0 6 -6 11 -14 11 -8 0 -17 4 -20 9 -3 5 10 9 29 9 21 0
32 -4 29 -10z"/>
<path d="M1173 2070 c-53 -12 -80 -35 -86 -74 -3 -20 -20 -57 -37 -82 -24 -35
-27 -45 -13 -39 10 4 32 11 48 16 39 12 226 8 218 -5 -4 -5 1 -7 11 -3 9 4 15
3 12 -2 -3 -4 6 -13 21 -20 44 -20 21 -21 -37 -1 -70 25 -188 26 -261 3 l-54
-17 35 -5 c26 -5 34 -11 32 -24 -2 -9 2 -17 8 -17 5 0 10 -10 10 -22 0 -22 1
-21 25 7 28 35 31 45 10 45 -8 0 -14 -5 -12 -11 1 -6 -4 -14 -12 -17 -10 -3
-12 0 -8 12 4 9 1 16 -6 16 -8 0 -7 4 3 11 13 9 12 10 -2 5 -10 -3 -18 -1 -18
4 0 22 177 25 211 4 7 -4 24 -8 39 -9 31 -3 75 -24 50 -25 -13 0 -13 -1 0 -10
9 -6 11 -10 3 -10 -8 0 -10 -7 -6 -17 6 -16 5 -16 -10 -4 -9 7 -14 17 -11 22
3 5 -2 9 -11 9 -9 0 -15 -3 -13 -7 24 -49 32 -63 40 -63 4 0 8 4 8 9 0 5 5 22
11 38 9 25 12 26 20 11 6 -10 16 -18 23 -18 8 0 21 -11 30 -25 9 -14 21 -25
27 -25 15 0 -22 47 -48 61 -12 6 -30 27 -40 46 -10 19 -27 51 -37 71 -10 21
-18 54 -18 74 2 31 -3 40 -31 59 -17 13 -35 28 -39 34 -5 6 -8 6 -8 -2 0 -9
-7 -10 -22 -4 -13 4 -38 5 -55 1z m54 -33 c6 -4 19 -4 29 0 13 5 15 3 9 -7 -6
-10 -4 -12 9 -7 10 4 15 3 11 -3 -3 -6 -2 -10 4 -10 6 0 15 -9 21 -21 11 -20
11 -20 -19 -4 -40 20 -115 34 -132 25 -28 -15 -59 -21 -59 -11 0 5 9 13 20 16
11 4 18 10 15 15 -3 4 5 6 17 2 12 -3 19 -1 15 4 -6 11 42 12 60 1z m61 -64
c21 -10 29 -19 22 -23 -14 -9 -12 -22 7 -35 10 -7 3 -10 -24 -12 -26 -1 -32 1
-19 6 18 7 18 8 -5 14 -13 4 -55 6 -94 5 l-70 -2 75 -6 75 -6 -72 -2 c-39 -1
-80 -5 -90 -8 -15 -5 -15 -4 -3 5 10 7 11 11 3 11 -7 0 -10 6 -7 14 3 8 14 12
27 9 13 -3 17 -1 10 4 -6 4 23 8 68 8 44 0 72 -3 62 -7 -13 -5 -14 -7 -3 -7 8
0 24 4 35 8 17 7 14 10 -20 20 -49 13 -99 14 -145 1 -32 -9 -33 -8 -16 5 11 8
30 15 43 15 13 0 23 4 23 9 0 11 73 -5 118 -26z"/>
<path d="M1130 1851 c-21 -6 -22 -8 -8 -14 10 -3 20 -2 23 3 3 5 20 7 38 3 18
-3 30 -4 27 -1 -10 10 -56 15 -80 9z"/>
<path d="M1240 1840 c10 -6 11 -10 3 -10 -7 0 -12 -4 -10 -9 1 -5 -2 -9 -8 -9
-5 0 -9 4 -7 9 1 5 -5 9 -13 9 -19 0 -19 0 2 -40 16 -33 17 -33 26 -12 6 12
14 22 20 22 5 0 7 7 3 15 -3 8 0 15 7 15 8 0 6 4 -3 10 -8 5 -19 10 -25 10 -5
0 -3 -5 5 -10z"/>
<path d="M943 1800 c-29 -17 -54 -68 -58 -115 0 -5 -9 -23 -19 -38 -10 -15
-16 -30 -13 -33 3 -3 11 4 17 16 16 31 102 67 189 81 121 18 319 -15 398 -67
13 -8 33 -29 44 -47 l21 -32 -7 30 c-4 17 -13 37 -21 46 -9 10 -10 19 -4 25
11 11 2 54 -12 54 -6 0 -7 -13 -3 -32 6 -28 5 -30 -11 -23 -206 87 -383 94
-556 20 -11 -4 -18 -3 -18 4 0 6 4 11 9 11 11 0 33 59 25 71 -3 5 2 9 10 9 9
0 16 6 17 13 0 6 6 -2 12 -20 l12 -32 23 34 c22 35 11 50 -14 18 -12 -17 -13
-16 -9 5 5 27 7 26 -32 2z"/>
<path d="M1410 1765 c0 -16 39 -65 45 -56 3 6 -1 18 -9 27 -9 8 -16 20 -16 25
0 5 -4 9 -10 9 -5 0 -10 -2 -10 -5z"/>
<path d="M937 1594 c-76 -14 -160 -48 -190 -78 -29 -29 -106 -66 -138 -66 -18
0 -30 -3 -27 -6 4 -3 44 -2 90 2 66 7 76 9 48 14 l-35 6 32 8 c18 4 42 19 52
32 48 61 265 96 469 75 194 -20 273 -47 352 -124 19 -18 44 -39 55 -46 17 -10
15 -11 -15 -5 -19 4 -66 17 -104 30 -63 21 -89 24 -73 8 3 -3 49 -17 102 -30
54 -14 131 -36 172 -49 83 -27 97 -30 88 -15 -3 5 -25 14 -48 21 -45 12 -145
73 -153 94 -10 24 -90 73 -154 94 -149 49 -365 64 -523 35z"/>
<path d="M1027 1493 c-1 0 -36 -4 -77 -8 -41 -4 -77 -9 -80 -11 -2 -3 90 -4
205 -2 116 2 224 -1 240 -5 29 -8 29 -8 12 10 -15 16 -36 18 -158 18 -77 0
-141 -1 -142 -2z"/>
<path d="M830 1479 c-7 -9 -27 -14 -44 -12 -17 1 -23 0 -13 -3 9 -3 17 -15 17
-27 0 -15 3 -18 11 -10 6 6 18 9 27 6 11 -5 13 -3 7 6 -4 8 -2 17 5 21 7 4 11
13 8 21 -3 9 -7 9 -18 -2z"/>
<path d="M1350 1472 c0 -5 18 -14 40 -20 35 -9 55 -2 33 11 -19 11 -73 18 -73
9z"/>
<path d="M1150 1454 c0 -7 -47 -14 -127 -18 -71 -5 -136 -9 -146 -9 -10 -1
-40 -23 -68 -50 -38 -37 -45 -47 -27 -42 12 4 30 14 39 22 10 8 26 12 41 8 31
-8 78 10 78 30 0 18 16 20 26 4 3 -6 0 -15 -7 -20 -9 -7 -2 -8 21 -5 19 3 85
8 147 10 116 6 203 -7 433 -64 47 -11 108 -25 135 -30 93 -19 195 -52 188 -63
-4 -6 0 -8 10 -4 10 4 16 2 14 -5 -1 -7 8 -13 21 -14 12 -1 22 0 22 1 0 15
-63 65 -82 65 -16 0 -19 3 -10 9 11 6 10 11 -4 25 -9 9 -23 15 -31 12 -8 -3
-22 -6 -31 -7 -9 0 -2 -5 17 -10 18 -6 31 -13 28 -16 -3 -2 -86 16 -185 41
-98 26 -192 49 -207 52 -16 3 -65 14 -110 24 -65 15 -105 17 -211 13 -96 -4
-133 -2 -139 7 -5 8 2 11 26 10 83 -5 230 1 225 8 -3 5 -19 7 -37 4 -20 -3
-34 0 -40 9 -5 8 -9 9 -9 3z m-250 -59 c-5 -6 -7 -15 -3 -18 3 -4 -2 -7 -11
-7 -12 0 -16 5 -12 15 3 9 0 15 -10 15 -8 0 -13 4 -10 9 3 4 17 6 31 3 19 -3
23 -8 15 -17z"/>
<path d="M1250 1446 c0 -8 12 -17 28 -20 15 -4 35 -9 45 -12 9 -3 17 -1 17 4
0 5 -16 13 -35 16 -20 4 -33 11 -30 17 4 5 -1 9 -9 9 -9 0 -16 -6 -16 -14z"/>
<path d="M1350 1420 c0 -4 12 -11 28 -14 15 -4 35 -9 44 -12 13 -4 16 -1 12
10 -3 9 -9 14 -14 11 -4 -2 -21 0 -39 5 -17 5 -31 5 -31 0z"/>
<path d="M680 1413 c-94 -5 -160 -14 -160 -22 0 -4 27 -3 59 2 63 10 111 4
111 -14 0 -8 -4 -8 -12 -2 -18 14 -188 -8 -218 -27 -21 -15 -13 -15 83 -4 58
6 111 15 118 19 7 5 10 4 5 -3 -9 -16 32 -26 49 -12 8 7 15 21 15 31 0 25 19
24 28 -1 7 -19 9 -19 30 -4 l23 16 -26 14 c-15 8 -32 13 -39 12 -6 -1 -36 -3
-66 -5z"/>
<path d="M1450 1407 c0 -9 50 -27 148 -52 81 -21 154 -40 162 -43 8 -3 12 -2
8 2 -3 4 -71 25 -150 47 -78 21 -144 44 -146 49 -5 15 -22 12 -22 -3z"/>
<path d="M590 1307 c-14 -12 -33 -35 -44 -51 -14 -22 -20 -26 -27 -15 -5 9 -3
17 9 22 9 4 1 5 -20 2 -24 -4 -38 -1 -41 7 -4 9 -6 9 -6 -2 -1 -13 -25 -15
-157 -15 -120 1 -160 -2 -170 -13 -27 -26 -14 -32 59 -26 283 21 312 22 322
10 6 -7 21 -26 34 -43 20 -25 27 -28 37 -18 9 8 68 14 181 19 92 4 259 11 371
17 177 9 205 8 224 -6 13 -8 39 -15 60 -15 31 0 38 -4 38 -20 0 -11 -9 -29
-20 -40 -12 -12 -18 -25 -15 -30 3 -6 -1 -7 -9 -4 -11 4 -16 0 -16 -10 0 -9
-7 -16 -15 -16 -8 0 -15 -7 -15 -15 0 -8 -5 -15 -11 -15 -5 0 -8 -4 -5 -9 7
-11 -17 -21 -50 -21 -17 0 -24 -6 -24 -20 0 -11 5 -20 11 -20 5 0 7 -5 3 -12
-4 -7 -3 -8 5 -4 6 4 9 12 6 17 -6 8 16 14 38 10 5 -1 6 3 2 9 -3 6 3 10 15
10 16 0 20 5 16 15 -3 9 0 15 9 15 8 0 15 7 15 16 0 13 3 14 15 4 12 -10 14
-8 10 8 -2 11 5 29 16 41 10 11 19 24 19 30 0 5 8 12 17 15 12 5 13 10 5 18
-8 8 -7 15 6 25 16 14 16 14 0 9 -12 -3 -18 0 -18 10 0 12 4 12 20 4 10 -6 17
-16 15 -23 -9 -28 -12 -88 -5 -92 13 -8 40 6 40 21 0 8 4 14 9 14 10 0 8 -22
-4 -60 -3 -10 0 -22 7 -27 7 -4 19 -20 27 -35 8 -16 17 -26 19 -23 3 3 16 -7
29 -21 12 -14 23 -20 23 -14 0 6 5 8 10 5 6 -3 10 0 10 7 1 9 28 -55 30 -68 0
-1 -7 -1 -16 0 -9 0 -18 -5 -20 -12 -1 -7 0 -8 3 -2 2 5 9 10 14 10 6 0 6 -7
0 -19 -6 -10 -8 -28 -6 -40 3 -18 -1 -21 -29 -21 -18 0 -41 7 -52 15 -21 16
-54 20 -54 7 0 -16 54 -35 91 -33 21 1 40 -2 44 -8 3 -6 11 -11 17 -11 7 0 7
4 0 13 -7 8 -7 18 -1 27 8 13 10 13 19 0 5 -8 8 -20 6 -27 -3 -7 11 -12 39
-15 24 -1 41 0 38 5 -2 4 -18 7 -34 7 -23 0 -30 4 -28 18 3 30 -1 40 -17 46
-8 3 -12 2 -9 -4 3 -6 1 -10 -4 -10 -14 0 -14 27 -1 35 6 4 10 14 8 23 -1 10
1 23 6 31 5 8 3 16 -5 22 -11 7 -9 9 7 9 33 0 47 -25 41 -68 -5 -32 -4 -35 7
-19 12 16 14 16 20 1 9 -22 8 -24 -11 -25 -11 0 -13 -3 -5 -6 6 -2 12 -9 12
-14 0 -6 -4 -8 -9 -5 -5 3 -14 -1 -21 -9 -10 -12 -9 -15 8 -15 25 0 47 53 32
80 -14 27 -13 30 13 30 18 0 19 -2 7 -11 -12 -8 -10 -9 10 -5 14 3 28 6 32 6
4 0 9 9 13 20 5 15 11 17 30 10 12 -5 26 -6 29 -3 3 3 9 -2 12 -11 5 -14 9
-15 15 -4 7 11 11 10 19 -2 5 -8 10 -10 10 -4 0 5 -6 16 -12 23 -10 11 -10 13
0 7 7 -4 12 -2 12 6 0 7 11 14 25 14 18 2 25 -3 23 -15 -2 -9 3 -15 10 -14 6
2 12 -5 12 -15 0 -14 2 -15 10 -2 10 16 13 11 23 -35 3 -13 5 -9 6 11 0 18 -6
37 -14 44 -9 7 -14 19 -11 27 3 8 2 12 -3 9 -9 -6 -37 21 -30 28 5 5 89 -8
201 -31 l88 -18 -13 -25 c-23 -43 -24 -64 -7 -83 17 -17 17 -17 15 6 -2 13 0
29 4 34 9 13 44 26 36 12 -9 -14 14 -39 36 -39 11 0 19 -5 19 -11 0 -7 9 -9
24 -5 13 3 35 1 48 -4 21 -9 20 -10 -9 -7 -35 4 -37 -1 -22 -43 l9 -25 -4 27
c-3 24 -1 25 20 18 12 -5 25 -6 28 -3 3 4 6 -1 6 -10 0 -9 -4 -19 -10 -22 -18
-11 -12 -55 8 -55 13 0 14 -2 4 -9 -10 -6 -7 -10 13 -13 19 -4 25 -2 21 8 -4
10 3 14 22 14 15 0 22 4 16 8 -6 4 -15 26 -19 50 -8 47 5 72 36 72 11 0 19 7
19 15 0 8 4 15 10 15 5 0 7 -7 4 -15 -5 -11 -1 -14 12 -9 16 5 15 2 -3 -14
-13 -11 -23 -26 -23 -34 0 -8 -5 -19 -12 -26 -9 -9 -9 -12 0 -12 7 0 12 5 12
10 0 6 7 10 15 10 16 0 47 -64 43 -88 -2 -9 8 -18 25 -23 33 -9 36 -2 5 11
-21 9 -20 9 7 7 18 -1 29 -7 27 -14 -1 -7 5 -13 13 -13 19 0 19 19 0 26 -8 4
-13 10 -10 14 3 4 -2 10 -10 14 -8 3 -15 1 -15 -4 0 -6 -7 -10 -15 -10 -8 0
-12 6 -9 13 2 7 -7 30 -20 50 -14 20 -21 37 -15 37 6 0 7 4 4 10 -3 6 1 7 9 4
21 -8 20 9 -3 54 -11 21 -22 56 -26 77 -11 64 -14 72 -25 55 -6 -8 -10 -28
-10 -45 0 -16 -12 -55 -27 -85 -22 -45 -27 -51 -31 -32 -3 19 -5 20 -17 8 -11
-11 -22 -11 -54 -3 -23 6 -41 15 -41 19 0 5 -11 6 -24 2 -27 -6 -46 23 -24 39
10 6 9 8 -3 4 -10 -3 -25 4 -38 19 -27 31 -28 51 -1 24 11 -11 29 -20 40 -20
11 0 23 0 27 -1 4 0 9 4 11 10 2 7 -3 8 -13 4 -14 -5 -16 -2 -10 17 7 21 5 22
-23 18 -27 -4 -31 -1 -34 21 -4 35 -21 33 -29 -4 -4 -16 -7 -22 -8 -11 -1 16
-7 18 -46 13 -37 -6 -45 -4 -45 10 0 13 -8 15 -55 9 -45 -5 -55 -3 -55 9 0 11
-12 15 -50 15 -45 0 -50 -2 -51 -22 -1 -19 -2 -19 -6 -5 -12 45 67 75 111 42
11 -8 30 -12 46 -8 17 3 37 -1 52 -11 37 -24 87 -14 88 17 0 5 -23 6 -50 2
-39 -5 -50 -4 -48 6 2 9 -10 12 -44 10 -40 -2 -48 1 -48 15 0 14 -7 16 -50 10
-40 -5 -52 -4 -56 9 -4 11 -20 15 -54 15 -27 0 -52 5 -55 10 -3 6 -30 10 -60
10 -38 0 -54 4 -59 15 -4 11 -21 15 -66 15 -49 0 -60 3 -60 16 0 14 -9 16 -59
11 -61 -5 -81 3 -81 32 0 12 2 13 9 3 4 -7 25 -13 47 -12 39 1 115 -12 189
-33 22 -6 44 -10 49 -8 4 1 22 -2 40 -7 17 -6 58 -15 91 -22 33 -7 104 -23
158 -36 119 -29 140 -30 135 -6 -3 12 -13 17 -41 17 -21 0 -41 6 -46 13 -5 9
-24 13 -52 11 -30 -2 -43 1 -42 9 2 8 -13 12 -45 12 -26 0 -52 4 -58 10 -5 5
-34 11 -64 14 -30 2 -68 5 -85 6 l-30 3 35 7 c31 7 29 8 -22 9 -47 1 -58 4
-58 17 0 14 -8 16 -54 11 -48 -5 -57 -3 -71 16 -9 12 -14 17 -11 11 6 -12 -24
-24 -59 -24 -11 0 -29 11 -40 24 -16 18 -25 22 -42 15 -13 -5 -25 -4 -28 1 -4
6 -11 10 -16 10 -6 0 -7 -4 -4 -10 4 -6 -5 -10 -20 -10 -14 0 -24 3 -22 8 3 4
-5 16 -16 27 -11 11 -17 15 -14 9 7 -12 -541 -41 -620 -33 -24 3 -43 1 -43 -3
0 -5 -21 -8 -47 -8 l-48 1 35 29 c19 16 31 29 25 29 -5 0 -21 -10 -35 -22z
m755 -43 c15 -10 41 -15 67 -13 77 5 95 -25 23 -36 -40 -5 -48 -3 -63 15 l-18
22 -350 -16 c-192 -9 -377 -19 -412 -23 -40 -4 -62 -2 -62 5 0 5 10 12 22 15
28 7 296 24 518 33 91 3 167 8 169 10 11 10 85 2 106 -12z m254 -114 c20 0 42
-5 48 -11 6 -6 36 -11 66 -10 40 0 57 -4 61 -14 4 -11 21 -15 59 -15 29 0 58
-5 65 -12 7 -7 30 -11 52 -9 31 2 40 -1 40 -13 0 -24 -115 -23 -124 0 -5 14
-17 16 -67 11 -46 -4 -62 -2 -66 9 -4 10 -24 14 -73 14 -51 0 -69 4 -74 15 -3
9 -18 15 -35 15 -20 0 -30 6 -34 19 -4 17 -2 18 20 10 13 -5 41 -9 62 -9z m7
-84 c11 -8 46 -16 79 -19 100 -8 219 -28 230 -38 13 -13 55 -11 55 4 0 8 3 7
9 -3 6 -8 7 -18 5 -22 -3 -4 1 -8 8 -8 10 0 9 -3 -2 -9 -8 -6 -18 -7 -22 -5
-4 3 -8 -2 -8 -11 0 -9 -4 -13 -10 -10 -5 3 -10 0 -10 -8 0 -16 -34 -13 -56 4
-6 5 -13 7 -16 4 -4 -4 -105 9 -155 20 -13 3 -23 12 -23 20 0 10 15 15 53 18
l52 3 -57 2 c-53 2 -58 0 -72 -25 -8 -16 -15 -23 -16 -16 0 6 -8 14 -18 17
-11 4 -25 18 -32 31 -7 14 -18 25 -25 25 -6 0 -11 9 -11 20 0 23 14 25 42 6z
m234 -136 c15 0 21 -3 14 -10 -12 -12 -84 -1 -84 12 0 6 10 8 23 4 12 -3 33
-6 47 -6z m708 -174 c-3 -35 -6 -41 -28 -44 -14 -2 -20 1 -14 5 6 4 11 26 10
48 -2 50 2 59 20 44 10 -8 14 -26 12 -53z"/>
<path d="M335 1200 c-55 -4 -140 -8 -188 -9 -81 -1 -88 -3 -96 -23 -5 -13 -8
-23 -7 -24 0 -1 89 5 196 12 107 7 207 13 223 13 20 1 27 6 27 21 0 16 -6 20
-27 18 -16 -1 -73 -5 -128 -8z"/>
<path d="M1125 1172 c-33 -2 -62 -7 -65 -12 -6 -10 -191 -17 -207 -7 -6 4 -14
3 -18 -3 -7 -11 -58 -14 -68 -3 -11 10 -121 3 -128 -9 -4 -5 -28 -9 -55 -7
-27 2 -72 -1 -101 -5 -29 -4 -59 -4 -70 2 -10 5 -40 6 -68 2 -27 -4 -44 -8
-37 -9 8 0 10 -6 6 -13 -5 -8 0 -7 11 2 17 14 18 14 7 -7 -17 -31 -15 -43 8
-43 13 0 20 7 20 18 0 10 7 27 16 38 15 18 15 17 10 -15 -3 -18 -6 -40 -6 -47
0 -8 -6 -11 -17 -7 -10 3 -15 3 -12 -1 11 -12 -63 -86 -85 -86 -20 -1 -20 -1
-3 -11 14 -8 23 -7 36 5 10 9 21 13 25 9 4 -5 6 -3 4 2 -2 6 8 22 21 35 l24
25 -7 -27 c-5 -23 -3 -25 16 -20 16 4 19 2 13 -8 -6 -10 -4 -12 9 -7 13 5 17
3 13 -7 -4 -11 -1 -13 11 -9 13 5 15 4 7 -8 -6 -9 -4 -9 5 1 12 13 36 17 100
18 46 1 89 7 94 12 11 11 -180 4 -198 -7 -20 -13 2 22 25 40 21 15 53 20 170
27 l144 8 -137 -2 c-106 -2 -135 0 -131 10 6 17 58 34 100 34 26 0 36 5 40 20
7 27 30 26 29 -1 -1 -12 4 -24 10 -26 15 -5 46 26 39 38 -4 5 0 10 7 11 7 0
-7 4 -32 8 l-45 7 48 1 47 2 0 -34 c0 -35 0 -35 31 -24 22 8 34 7 42 -1 8 -8
8 -11 -1 -11 -7 0 -12 -6 -12 -13 0 -7 -17 -29 -37 -48 -34 -31 -42 -34 -76
-28 -34 5 -40 3 -48 -17 -8 -22 -14 -24 -78 -24 -74 0 -81 -5 -81 -56 0 -16 4
-23 11 -18 8 4 9 -4 4 -27 -5 -27 -4 -31 5 -19 10 13 11 12 6 -3 -3 -10 -6
-21 -6 -23 0 -3 -5 -2 -12 2 -7 4 -8 3 -4 -5 5 -8 0 -10 -18 -7 -14 3 -26 0
-26 -5 0 -15 57 -10 71 7 7 9 14 37 15 62 2 40 1 42 -6 17 -7 -28 -8 -28 -9
-5 -1 14 -4 36 -6 50 -5 22 -4 22 4 5 5 -11 10 -14 10 -6 1 10 11 12 39 7 27
-5 33 -4 22 3 -12 9 -9 11 13 11 31 0 31 1 16 -37 -6 -15 -7 -48 -4 -75 l7
-48 40 0 c22 0 54 6 71 14 44 19 77 26 77 15 0 -5 -5 -9 -12 -9 -6 0 -9 -2 -6
-5 3 -3 13 -3 22 1 16 6 16 8 0 25 -16 18 -16 19 -1 19 19 0 23 15 7 25 -5 3
-10 1 -10 -5 0 -6 -12 -15 -27 -21 -56 -20 -83 -34 -83 -41 0 -12 -35 -9 -48
4 -9 9 -12 9 -12 -2 0 -7 -3 -10 -6 -7 -4 4 -1 13 6 22 7 8 9 23 6 32 -6 15
-8 15 -17 3 -6 -10 -7 -4 -3 20 8 42 14 51 14 22 0 -11 4 -23 8 -26 4 -2 6 10
4 27 -6 50 13 87 43 87 14 0 25 -4 25 -10 0 -5 -4 -10 -10 -10 -5 0 -10 -5
-10 -11 0 -5 4 -8 9 -4 5 3 11 0 14 -7 2 -7 3 -5 1 5 -2 12 2 17 11 13 9 -3
12 0 8 10 -3 7 -1 14 5 14 6 0 12 -5 14 -12 3 -7 7 -5 11 6 5 11 3 15 -5 10
-7 -5 -8 -3 -4 5 5 7 14 10 22 7 9 -3 11 0 7 12 -3 9 -3 14 2 10 4 -4 16 3 27
15 18 21 18 21 16 2 -2 -14 4 -21 20 -23 12 -2 20 -8 17 -13 -4 -5 1 -9 10 -9
9 0 13 -4 10 -10 -3 -5 1 -10 10 -10 9 0 14 -4 11 -9 -3 -5 6 -8 19 -8 14 0
25 3 25 8 0 5 -6 9 -12 9 -10 0 -10 3 0 9 8 5 56 9 108 10 105 1 113 -5 73
-60 -15 -22 -19 -38 -14 -57 4 -15 7 -37 7 -49 0 -18 6 -23 27 -23 20 0 23 2
11 10 -13 8 -12 10 4 10 16 0 15 4 -10 26 -16 15 -24 24 -18 21 6 -4 10 9 11
31 1 22 8 41 19 49 23 17 34 16 34 -1 0 -8 4 -16 8 -18 4 -1 18 -20 31 -40 19
-32 20 -37 6 -31 -15 5 -16 3 -5 -17 16 -29 0 -46 -28 -31 -13 7 -23 8 -27 1
-9 -15 46 -24 67 -11 11 7 36 11 56 10 21 -1 50 4 66 10 30 12 61 8 52 -7 -3
-5 1 -9 8 -9 10 0 10 6 2 24 -9 18 -19 23 -48 23 -30 0 -36 3 -31 16 3 8 16
19 29 24 12 5 24 19 26 32 4 31 48 39 48 9 0 -11 4 -22 8 -25 4 -3 7 8 6 25
-2 34 13 38 54 12 28 -18 42 -33 42 -46 0 -8 -34 10 -62 31 -11 9 -18 10 -23
3 -3 -6 2 -11 12 -11 15 0 16 -2 3 -10 -11 -7 -11 -10 -2 -10 7 0 10 -4 7 -10
-3 -5 0 -7 8 -4 8 3 18 1 21 -4 3 -6 14 -8 25 -5 11 3 21 -2 24 -11 8 -21 27
-21 27 0 0 8 -4 12 -10 9 -5 -3 -7 0 -4 8 3 8 -2 17 -10 20 -9 4 -13 13 -10
22 4 8 1 15 -6 15 -7 0 -10 7 -7 15 5 11 1 12 -18 5 -30 -11 -31 -10 -5 20 11
13 20 28 20 34 0 6 -5 4 -10 -4 -9 -13 -12 -13 -23 1 -6 9 -26 18 -44 21 -29
4 -31 3 -22 -20 13 -33 11 -39 -4 -17 -9 11 -16 14 -21 7 -3 -6 -2 -13 4 -17
21 -13 10 -24 -15 -15 -20 8 -23 7 -18 -7 5 -13 2 -15 -15 -11 -19 5 -20 3
-12 -13 8 -14 6 -21 -12 -31 -13 -7 -26 -11 -29 -10 -4 1 -5 -7 -2 -17 3 -11
-2 -21 -11 -24 -10 -4 -13 -1 -10 7 3 8 0 17 -7 22 -7 4 -10 3 -6 -2 3 -6 1
-16 -4 -24 -9 -13 -12 -12 -22 3 -7 10 -20 28 -29 39 -21 24 -21 28 -8 48 8
12 10 12 10 1 0 -29 13 -1 17 39 3 24 1 40 -5 40 -6 0 -12 -12 -14 -27 -3 -23
-9 -29 -40 -34 -28 -4 -38 -2 -38 8 0 8 12 13 35 13 19 0 35 5 35 11 0 10
-284 4 -301 -7 -5 -3 -21 6 -36 20 -15 15 -31 26 -35 26 -5 0 -8 14 -8 30 l0
30 73 1 c132 2 183 29 77 40 l-55 6 71 1 c71 2 71 2 66 -23 -4 -21 -1 -25 21
-25 25 0 42 23 31 42 -4 6 4 8 17 6 27 -3 32 -29 9 -41 -8 -4 -2 -5 15 -2 17
3 75 8 130 11 117 8 131 12 112 38 -11 15 -28 18 -116 17 -57 -1 -109 2 -115
6 -6 5 -38 7 -71 5z m213 -29 c-21 -2 -55 -2 -75 0 -21 2 -4 4 37 4 41 0 58
-2 38 -4z m-490 -33 c-1 -34 -22 -36 -24 -2 -1 12 3 19 7 16 5 -3 9 0 9 5 0 6
2 11 4 11 3 0 4 -14 4 -30z m-248 3 c-19 -3 -44 -13 -55 -23 -16 -15 -28 -17
-60 -10 l-40 8 36 1 c19 0 44 8 55 16 10 8 37 14 59 13 l40 -1 -35 -4z m-109
-63 c-13 -11 -37 -20 -55 -21 -27 -1 -28 -2 -8 -7 21 -6 22 -9 8 -27 -15 -20
-15 -20 -33 0 -19 21 -19 55 1 67 6 4 34 8 61 8 l50 -1 -24 -19z m1024 -66 c0
-10 -8 -20 -17 -22 -14 -3 -17 3 -16 21 3 29 33 30 33 1z m-166 -158 c-9 -9
-80 -13 -85 -5 -3 5 16 9 42 9 26 0 45 -2 43 -4z"/>
<path d="M5 1110 c-3 -5 1 -12 9 -17 8 -4 14 -17 13 -28 -3 -29 27 -25 31 4 2
13 -2 28 -10 32 -9 6 -6 9 10 9 13 0 20 -4 17 -10 -3 -5 -2 -10 4 -10 7 0 7
-8 1 -26 -9 -23 -8 -25 7 -19 10 4 59 10 108 13 80 4 104 12 105 33 0 12 -46
19 -167 23 -67 3 -125 1 -128 -4z"/>
<path d="M1135 1059 c-281 -12 -292 -18 -25 -12 129 3 239 9 245 14 5 5 1 8
-10 7 -11 0 -105 -5 -210 -9z"/>
<path d="M143 1013 c20 -2 54 -2 75 0 20 2 3 4 -38 4 -41 0 -58 -2 -37 -4z"/>
<path d="M50 970 c0 -6 -10 -15 -22 -20 -13 -5 -17 -9 -10 -9 6 -1 12 -11 12
-23 0 -17 3 -19 9 -9 7 11 9 11 14 0 3 -8 6 5 6 29 1 23 -1 42 -4 42 -3 0 -5
-5 -5 -10z"/>
<path d="M167 963 c-63 -4 -68 -9 -80 -86 -4 -26 -2 -35 5 -31 7 5 9 0 6 -14
-4 -12 -2 -20 3 -16 5 3 9 0 9 -7 0 -6 -8 -9 -20 -6 -11 3 -20 1 -20 -4 0 -5
6 -9 14 -9 8 0 20 -2 28 -5 10 -4 13 7 14 42 1 27 -1 40 -3 30 -7 -30 -23 -8
-22 31 0 30 2 33 9 17 5 -11 9 -14 9 -7 1 7 16 12 41 12 38 0 39 -1 30 -26 -6
-14 -10 -44 -10 -66 0 -35 2 -39 15 -28 11 9 14 22 10 42 -4 17 -2 28 4 28 6
0 11 15 11 34 0 32 2 34 28 30 26 -4 26 -3 6 9 -12 6 -19 18 -17 25 3 6 1 11
-4 10 -4 -1 -34 -3 -66 -5z m43 -22 c0 -6 -18 -11 -40 -11 -22 0 -43 0 -47 -1
-4 0 -9 3 -10 8 -2 4 20 9 47 11 30 2 50 -1 50 -7z"/>
<path d="M980 947 c0 -4 4 -6 9 -3 5 3 11 -15 13 -40 2 -25 0 -48 -4 -50 -5
-3 -8 -13 -7 -22 0 -12 4 -9 11 8 6 14 10 34 9 45 -2 16 0 18 10 8 10 -10 10
-17 -1 -37 -7 -14 -10 -34 -7 -45 3 -12 0 -21 -6 -21 -6 0 -7 -3 -4 -7 4 -3
15 1 25 11 20 18 31 116 12 116 -5 0 -7 7 -4 15 4 11 21 15 55 15 27 0 49 4
49 10 0 6 -32 9 -80 8 -44 -1 -80 -6 -80 -11z"/>
<path d="M807 933 c-4 -3 -2 -12 5 -20 6 -7 8 -16 4 -20 -3 -3 -6 -1 -6 6 0 8
-5 9 -19 2 -10 -6 -22 -7 -26 -3 -4 4 -5 -2 -3 -13 2 -15 -2 -20 -19 -19 -24
1 -27 -4 -17 -29 5 -13 9 -13 35 0 16 8 29 21 29 29 0 8 6 14 13 15 6 0 20 2
30 4 11 2 17 -3 17 -16 0 -17 11 -24 33 -20 4 0 7 -4 7 -10 0 -6 -9 -9 -20 -6
-10 3 -24 -1 -31 -9 -9 -11 -6 -14 15 -14 15 0 40 -7 55 -15 26 -13 29 -13 27
3 0 9 5 17 13 17 8 0 15 6 17 13 1 7 0 9 -2 4 -3 -5 -16 -7 -31 -4 -19 4 -24
2 -18 -8 5 -9 4 -11 -3 -6 -17 10 -16 49 1 40 7 -4 9 -3 4 2 -9 9 -13 10 -42
13 -12 1 -12 6 -4 29 8 22 8 25 -2 15 -16 -16 -39 -17 -39 -2 0 5 6 7 13 3 8
-5 8 -2 -2 9 -14 18 -24 21 -34 10z"/>
<path d="M334 904 c4 -10 0 -18 -13 -21 -12 -3 -17 -11 -14 -19 5 -12 -13 -19
-39 -15 -4 0 -5 -6 -1 -15 4 -10 -2 -17 -16 -21 -21 -5 -30 -23 -11 -23 6 0
10 -5 10 -11 0 -7 -10 -9 -24 -5 -14 3 -28 2 -31 -4 -18 -29 99 4 125 35 9 11
6 12 -12 8 -13 -3 -29 -10 -35 -16 -9 -6 -13 -6 -13 2 0 6 13 17 29 25 16 9
31 22 34 31 10 23 44 18 51 -7 3 -13 1 -27 -4 -32 -15 -15 -12 -29 6 -22 8 3
26 -1 40 -10 22 -15 24 -15 18 0 -3 9 -1 16 5 16 6 0 11 4 11 9 0 5 -11 8 -25
6 -14 -1 -28 2 -32 8 -3 6 -1 7 4 4 6 -4 14 0 17 9 3 8 2 13 -2 10 -4 -2 -14
-1 -21 3 -10 7 -11 13 -1 32 10 19 10 22 0 12 -16 -15 -40 -6 -33 13 3 9 -1
14 -12 14 -12 0 -15 -5 -11 -16z"/>
<path d="M2113 906 c-6 -7 -8 -19 -3 -26 6 -10 9 -9 13 1 3 8 6 -8 7 -36 1
-34 4 -44 9 -31 7 18 8 18 14 -5 10 -35 8 -46 -4 -29 -8 12 -10 9 -6 -12 3
-19 -2 -29 -17 -36 -20 -10 -20 -11 5 -11 23 -1 27 4 32 37 4 20 4 47 1 60 -5
19 -2 22 20 22 25 0 26 -2 26 -54 0 -31 5 -58 13 -64 16 -13 87 -22 87 -11 0
5 7 9 15 9 8 0 15 4 15 10 0 5 -7 7 -15 4 -8 -4 -15 -1 -15 5 0 6 5 11 10 11
6 0 10 7 10 16 0 9 6 14 13 11 6 -2 11 -11 11 -20 -1 -9 3 -15 10 -14 6 1 10
-6 10 -15 -2 -16 49 -48 75 -48 14 0 14 47 0 55 -6 4 -9 0 -7 -10 2 -10 -3
-20 -10 -22 -8 -3 -10 1 -6 12 5 12 2 16 -12 13 -13 -2 -18 2 -16 15 2 10 -3
17 -12 17 -10 0 -13 6 -10 15 4 8 1 15 -4 15 -6 0 -13 10 -15 23 l-4 22 -8
-22 c-4 -13 -11 -20 -16 -17 -5 3 -9 -2 -9 -10 0 -9 -4 -16 -9 -16 -5 0 -12
-13 -16 -29 -5 -23 -10 -27 -30 -23 -14 2 -22 9 -18 15 3 6 1 7 -5 3 -7 -4
-12 -1 -12 8 0 20 17 30 23 14 4 -9 6 -10 6 -1 1 6 -3 14 -9 18 -6 4 -6 15 0
30 5 14 7 25 3 25 -3 0 2 8 11 19 16 17 16 19 -1 25 -10 4 -40 9 -67 12 -27 2
-54 10 -60 18 -9 12 -13 12 -23 2z m90 -36 c9 0 17 -4 17 -10 0 -12 -61 -2
-75 13 -7 6 -2 8 15 3 14 -3 33 -6 43 -6z m43 -22 c-11 -6 -15 -16 -11 -29 3
-10 2 -27 -4 -36 -9 -15 -10 -13 -11 12 0 49 10 74 27 68 13 -5 13 -7 -1 -15z"/>
<path d="M1421 896 c-6 -7 -9 -20 -5 -29 5 -14 7 -14 23 1 10 9 16 23 13 30
-5 16 -17 15 -31 -2z"/>
<path d="M1870 873 c0 -55 -19 -81 -21 -28 -1 34 -2 36 -9 15 -8 -28 -2 -79
13 -97 11 -14 67 -18 67 -5 0 17 -13 22 -27 10 -22 -18 -39 5 -24 34 11 23 11
23 8 -4 -2 -15 0 -25 4 -22 5 3 6 30 2 61 -5 44 -3 54 7 48 8 -5 11 -3 8 5
-10 31 -28 21 -28 -17z"/>
<path d="M37 877 c-4 -10 -10 -16 -15 -13 -4 2 -7 -12 -7 -32 0 -29 4 -36 23
-37 15 -1 22 4 22 17 0 21 -11 23 -29 6 -10 -11 -11 -9 -5 7 4 11 12 23 17 26
5 4 7 15 5 25 -3 18 -4 18 -11 1z"/>
<path d="M2834 875 c-4 -9 -4 -18 -1 -21 2 -3 1 -20 -3 -38 -4 -19 -4 -40 1
-47 5 -8 3 -17 -4 -22 -8 -5 -5 -7 8 -5 12 2 19 -2 18 -9 -2 -7 2 -13 7 -13 6
0 10 4 10 9 0 6 -4 13 -10 16 -5 3 -10 11 -10 17 0 6 9 1 20 -12 11 -13 20
-20 20 -17 0 4 9 -2 19 -12 10 -10 22 -37 26 -60 6 -34 11 -41 30 -41 18 0 24
7 28 37 8 49 2 53 -13 9 -6 -20 -16 -36 -21 -36 -6 0 -7 9 -4 20 4 12 2 20 -5
20 -6 0 -10 12 -8 28 2 21 8 27 24 25 15 -2 24 5 27 19 8 29 -3 109 -14 102
-5 -3 -7 -15 -3 -28 3 -12 1 -33 -5 -48 -8 -20 -15 -25 -35 -21 -14 3 -26 9
-26 14 0 5 -6 6 -14 3 -16 -6 -36 43 -36 87 0 32 -17 48 -26 24z"/>
<path d="M2009 875 c-1 -3 -2 -11 -3 -17 -1 -7 -7 -12 -14 -10 -14 2 -16 -14
-3 -23 12 -7 41 22 41 41 0 13 -18 21 -21 9z"/>
<path d="M1202 854 c-19 -13 -21 -19 -11 -30 14 -17 31 -5 36 26 3 24 3 24
-25 4z"/>
<path d="M1066 834 c-3 -9 -2 -23 4 -32 5 -10 10 -13 10 -8 0 5 7 3 15 -4 13
-11 13 -8 4 19 -13 37 -25 46 -33 25z"/>
<path d="M551 810 c-6 -18 -9 -36 -6 -38 3 -3 5 0 5 7 0 9 5 9 21 0 19 -10 20
-9 14 13 -15 48 -22 52 -34 18z"/>
<path d="M2030 826 c0 -16 26 -46 40 -46 19 0 19 18 0 23 -13 3 -18 10 -14 21
4 11 1 16 -10 16 -9 0 -16 -6 -16 -14z"/>
<path d="M1480 820 c-27 -4 -32 -7 -20 -15 25 -16 48 -15 54 2 8 20 8 20 -34
13z"/>
<path d="M1956 809 c6 -10 -21 -30 -29 -22 -4 3 -7 1 -7 -5 0 -6 7 -18 16 -27
13 -12 19 -13 24 -4 4 6 13 8 19 5 6 -4 11 0 11 9 0 11 -5 15 -15 11 -8 -3
-15 -1 -15 5 0 5 7 12 15 15 21 9 19 23 -4 21 -11 0 -18 -4 -15 -8z"/>
<path d="M2697 803 c-13 -12 -7 -28 14 -42 19 -11 21 -11 16 4 -5 11 -3 14 6
8 6 -4 21 -6 32 -5 18 2 19 2 3 -8 -10 -6 -18 -19 -17 -28 0 -10 3 -12 6 -4 9
22 23 13 23 -15 0 -55 11 -73 40 -73 23 0 28 4 26 25 -1 30 -16 34 -16 5 0
-11 -7 -20 -16 -20 -11 0 -13 6 -9 19 3 11 1 22 -6 26 -7 5 -9 22 -5 49 l6 41
-37 1 c-20 0 -39 6 -41 12 -4 13 -15 15 -25 5z"/>
<path d="M2030 751 c-13 -13 -12 -14 4 -8 9 4 27 2 38 -4 23 -12 37 -4 20 13
-17 17 -46 17 -62 -1z"/>
<path d="M1070 750 c10 -7 -77 -10 -282 -9 -163 0 -302 -2 -308 -6 -5 -3 -10
-12 -10 -18 0 -7 4 -6 10 3 9 13 11 13 20 0 9 -13 10 -13 10 0 0 13 1 13 11 0
8 -11 12 -12 16 -2 2 6 9 12 14 12 6 0 7 -4 4 -10 -3 -5 -1 -10 4 -10 6 0 11
6 11 13 0 8 4 7 10 -3 9 -13 11 -13 20 0 9 13 11 13 20 0 8 -12 10 -12 10 -1
0 11 3 11 15 1 8 -7 15 -8 15 -3 0 5 89 8 213 8 143 -1 214 2 219 9 5 8 8 7 8
-1 0 -8 13 -13 31 -13 17 0 28 4 24 10 -3 6 -2 10 4 10 5 0 12 -6 15 -12 5
-10 7 -10 12 0 3 6 10 12 15 12 6 0 8 -4 5 -8 -3 -5 1 -9 9 -9 8 0 12 4 9 9
-3 4 0 8 5 8 6 0 11 -5 11 -11 0 -8 5 -7 16 2 14 11 18 10 30 -6 10 -14 14
-15 14 -4 0 12 21 15 128 14 72 0 130 -4 135 -10 4 -6 11 -4 17 5 5 8 10 10
10 4 0 -6 14 -10 30 -9 17 1 30 -2 30 -6 0 -4 -24 -10 -52 -12 l-53 -3 58 -2
c45 -2 57 1 57 13 0 8 5 15 10 15 6 0 10 -5 10 -10 0 -6 22 -8 55 -6 30 3 55
1 55 -3 0 -5 25 -7 55 -6 37 2 55 -1 55 -8 0 -7 5 -5 10 3 5 8 10 10 10 5 0
-6 15 -10 33 -10 17 1 37 -1 42 -4 10 -6 36 -8 158 -13 31 -1 57 -5 57 -9 0
-3 18 -5 40 -4 65 3 45 -12 -27 -21 -38 -4 -58 -9 -46 -11 12 -3 45 1 75 7 59
13 111 14 178 5 25 -3 63 -7 85 -10 22 -2 60 -6 85 -9 58 -8 113 -14 170 -21
25 -2 85 -9 134 -15 83 -9 119 -7 85 4 -31 11 -939 111 -1194 132 -44 3 -84 9
-90 13 -5 4 -143 8 -305 10 -162 2 -306 5 -320 7 -20 4 -22 2 -10 -6z"/>
<path d="M10 710 c12 -22 22 -27 14 -7 -3 10 39 12 201 12 113 0 205 3 205 7
0 4 -97 8 -215 8 -213 0 -216 0 -205 -20z"/>
<path d="M1427 713 c18 -2 50 -2 70 0 21 2 7 4 -32 4 -38 0 -55 -2 -38 -4z"/>
<path d="M813 703 c42 -2 112 -2 155 0 42 1 7 3 -78 3 -85 0 -120 -2 -77 -3z"/>
<path d="M1131 703 c-1 -6 -18 -14 -38 -16 -28 -3 -25 -4 11 -3 35 1 51 5 53
16 4 12 3 12 -5 1 -8 -11 -10 -11 -15 0 -3 9 -6 10 -6 2z"/>
<path d="M2854 694 c9 -8 17 -20 17 -25 1 -5 2 -15 3 -21 0 -7 12 -15 25 -16
21 -3 23 -2 10 12 -34 37 -40 47 -34 56 3 6 -3 10 -15 10 -19 0 -20 -1 -6 -16z"/>
<path d="M122 693 c49 -2 127 -2 175 0 49 1 9 3 -87 3 -96 0 -136 -2 -88 -3z"/>
<path d="M1170 691 c0 -5 28 -7 62 -5 53 4 65 1 85 -18 13 -12 23 -18 23 -13
0 4 -8 13 -17 20 -14 11 1 13 91 14 60 0 111 3 114 5 2 3 -77 5 -177 5 -99 1
-181 -3 -181 -8z"/>
<path d="M583 684 c7 -7 218 -6 225 1 3 3 -48 5 -113 5 -65 0 -116 -3 -112 -6z"/>
<path d="M821 686 c2 -3 37 -6 77 -7 54 -2 75 -6 83 -18 9 -14 10 -14 5 1 -4
13 3 18 27 21 18 2 -19 5 -82 5 -63 1 -112 0 -110 -2z"/>
<path d="M1 676 c7 -8 139 -10 146 -3 3 4 -29 7 -72 7 -43 0 -76 -2 -74 -4z"/>
<path d="M1975 660 c-48 -7 -48 -7 -10 -8 22 0 60 3 85 7 40 8 41 8 10 8 -19
0 -57 -3 -85 -7z"/>
<path d="M2095 650 c-34 -6 -35 -7 -10 -8 17 0 50 3 75 7 40 8 41 8 10 8 -19
0 -53 -3 -75 -7z"/>
<path d="M1001 633 c-1 -7 7 -17 17 -22 16 -10 15 -10 -3 -11 -20 -1 -20 -1 0
-12 11 -6 23 -16 26 -21 4 -6 14 -5 25 3 11 6 12 10 4 7 -14 -4 -41 15 -40 28
1 21 -1 25 -9 21 -5 -4 -12 0 -14 6 -4 10 -6 10 -6 1z"/>
<path d="M2288 633 c-21 -2 -38 -9 -38 -14 0 -6 5 -7 10 -4 6 3 10 0 10 -7 0
-10 2 -10 8 -1 4 6 30 16 57 21 51 10 25 12 -47 5z"/>
<path d="M50 621 c8 -6 27 -11 42 -11 15 0 30 -4 33 -10 3 -5 41 -10 83 -10
42 -1 93 -7 113 -14 29 -10 36 -10 36 1 0 18 -14 21 -157 33 -69 6 -134 13
-145 16 -16 4 -17 3 -5 -5z"/>
<path d="M2390 620 c-27 -6 -29 -8 -10 -8 14 -1 43 3 65 7 33 7 35 9 10 9 -16
-1 -46 -4 -65 -8z"/>
<path d="M397 583 c22 -3 30 -8 27 -18 -5 -11 4 -13 41 -10 25 3 44 1 42 -3
-3 -4 34 -7 81 -7 52 0 90 -5 97 -12 7 -6 32 -10 56 -9 24 1 66 -1 93 -6 27
-4 81 -8 120 -9 39 -2 74 -7 78 -13 5 -7 8 -7 8 2 0 6 7 12 15 12 8 0 15 -4
15 -8 0 -5 21 -9 48 -10 69 -3 103 -12 95 -25 -5 -8 -2 -8 9 0 8 7 18 10 22 6
3 -4 33 -6 66 -5 73 2 91 -16 83 -81 -3 -23 -2 -39 2 -35 5 5 9 25 9 45 1 21
5 44 9 51 5 7 4 12 -2 12 -6 0 -11 6 -11 13 0 14 -193 38 -615 77 -121 11
-256 25 -300 30 -44 6 -89 9 -100 8 -11 0 -6 -3 12 -5z"/>
<path d="M1103 575 c-3 -9 -3 -19 1 -22 3 -4 6 -1 6 7 0 10 3 10 15 0 8 -6 20
-10 27 -7 8 4 7 6 -4 6 -10 1 -18 8 -18 16 0 20 -19 19 -27 0z"/>
<path d="M2431 549 c-130 -9 -141 -12 -141 -35 0 -11 5 -14 18 -9 23 10 55 15
126 20 32 2 61 6 64 9 3 3 19 6 36 6 17 0 38 5 46 10 17 11 21 11 -149 -1z"/>
<path d="M1664 539 c-9 -16 15 -29 51 -27 27 1 27 1 5 5 -47 8 -57 14 -35 23
16 7 17 9 3 9 -9 1 -20 -4 -24 -10z"/>
<path d="M2130 528 c-202 -14 -604 -49 -622 -54 -10 -3 -18 -9 -18 -14 0 -8
48 -6 160 6 30 3 89 7 130 10 41 2 95 6 118 9 24 2 60 5 80 6 21 1 62 5 92 10
94 14 149 18 152 10 2 -4 13 -2 26 5 36 18 9 21 -118 12z"/>
<path d="M2730 525 c0 -8 8 -15 18 -15 15 0 15 2 2 11 -11 7 -4 8 25 5 31 -4
34 -4 15 3 -39 14 -60 12 -60 -4z"/>
<path d="M162 514 c-12 -8 -22 -21 -22 -27 0 -9 2 -9 8 -1 4 6 17 14 29 18 18
6 25 1 39 -25 18 -36 28 -129 13 -129 -5 0 -9 -11 -9 -24 0 -31 -16 -42 -23
-16 -7 26 -27 26 -27 0 0 -13 -5 -18 -15 -14 -8 4 -15 12 -15 20 0 8 -4 14
-10 14 -5 0 -10 -7 -10 -15 0 -20 -17 -19 -29 3 -8 13 -10 14 -11 2 0 -10 -11
-15 -33 -16 -17 -1 -24 1 -15 3 10 2 18 11 18 19 0 16 -16 19 -25 4 -4 -6 -10
-8 -14 -5 -5 2 -8 -6 -8 -19 l0 -24 246 -6 c135 -3 317 -9 405 -12 129 -5 157
-3 154 8 -3 7 -19 13 -38 13 -19 0 -35 6 -38 13 -5 16 -52 16 -53 0 0 -7 -4
-4 -9 7 -8 19 -9 19 -9 -2 -1 -16 -7 -23 -20 -23 -14 0 -19 6 -19 23 3 51 -3
97 -12 97 -13 0 -8 -63 5 -72 6 -5 5 -8 -2 -8 -7 0 -13 -7 -13 -15 0 -8 -4
-15 -10 -15 -5 0 -10 7 -10 15 0 8 -4 15 -10 15 -5 0 -10 -7 -10 -15 0 -8 -4
-15 -10 -15 -5 0 -10 4 -10 10 0 6 -9 6 -23 1 -31 -12 -47 14 -47 74 0 25 -4
53 -9 63 -5 9 -14 28 -20 42 -8 20 -9 8 -6 -52 l5 -77 -32 -4 -33 -4 33 -1
c47 -3 86 -42 41 -42 -13 0 -18 4 -13 12 4 7 3 8 -5 4 -6 -4 -8 -12 -5 -18 5
-8 -10 -9 -52 -4 -103 12 -113 12 -108 4 3 -4 0 -8 -7 -8 -8 0 -9 18 -5 63 12
106 -41 197 -92 161z"/>
<path d="M26 495 c4 -16 10 -39 14 -50 8 -24 2 -57 -9 -50 -5 2 -6 -7 -3 -21
3 -17 9 -23 19 -20 8 3 15 6 16 6 6 0 0 80 -6 86 -4 4 -7 15 -7 24 0 9 -7 25
-15 36 -14 18 -15 17 -9 -11z"/>
<path d="M339 493 c-6 -16 -15 -36 -20 -45 -5 -10 -9 -45 -9 -78 0 -53 2 -60
20 -60 14 0 20 7 20 23 0 13 3 27 6 30 4 4 9 40 11 82 5 79 -8 100 -28 48z m6
-93 c0 -15 -3 -26 -7 -24 -3 2 -9 -2 -11 -8 -3 -7 -6 3 -6 23 -1 35 7 54 18
43 3 -3 6 -18 6 -34z"/>
<path d="M1424 509 c-3 -5 4 -9 14 -9 11 0 34 -3 51 -6 21 -4 31 -3 31 5 0 7
-4 9 -10 6 -5 -3 -26 -2 -45 4 -21 6 -37 6 -41 0z"/>
<path d="M2630 513 c14 -2 30 -11 37 -19 7 -10 13 -12 18 -5 3 6 0 11 -7 11
-9 0 -9 3 2 10 11 7 2 9 -30 8 -26 0 -34 -3 -20 -5z"/>
<path d="M2823 513 c4 -6 1 -13 -5 -16 -7 -2 9 -5 35 -5 27 0 51 -3 55 -6 3
-3 -12 -6 -34 -6 -29 0 -35 -3 -24 -10 13 -8 13 -10 -1 -10 -11 0 -16 -10 -16
-35 0 -19 4 -35 9 -35 4 0 8 -7 8 -16 0 -8 5 -12 10 -9 15 9 12 -21 -4 -34 -8
-6 -33 -10 -57 -9 -36 3 -44 0 -47 -16 -4 -18 2 -19 104 -13 60 4 117 7 126 7
14 0 16 12 15 88 -2 77 -4 87 -19 84 -10 -2 -18 2 -18 9 0 6 -8 9 -20 6 -11
-3 -18 -2 -15 3 2 4 -13 10 -34 14 -22 3 -47 9 -57 13 -11 4 -15 3 -11 -4z
m154 -90 c4 -9 2 -18 -5 -21 -8 -2 -8 -11 -1 -28 13 -35 11 -44 -7 -44 -9 0
-14 8 -13 18 3 32 -1 37 -26 37 -18 0 -25 -6 -26 -20 0 -19 -1 -18 -11 3 -6
12 -15 22 -20 22 -4 0 -8 11 -8 25 0 24 3 25 55 25 43 0 57 -4 62 -17z"/>
<path d="M2439 441 c-6 -17 -18 -32 -27 -34 -9 -3 -3 -5 15 -6 17 0 35 4 38 9
3 6 16 11 28 11 16 1 14 3 -8 8 -20 4 -30 12 -29 24 3 26 -6 20 -17 -12z"/>
<path d="M2296 421 c-10 -43 8 -81 41 -81 18 0 23 -5 23 -25 0 -18 -4 -23 -15
-19 -8 4 -22 1 -30 -6 -10 -9 -15 -9 -15 -1 0 6 -18 11 -44 11 -43 0 -65 18
-50 41 3 5 0 9 -6 9 -15 0 -49 41 -50 58 0 23 -20 2 -20 -22 0 -12 -4 -27 -10
-34 -7 -9 -7 -9 2 -2 18 15 38 12 38 -5 0 -8 5 -15 10 -15 6 0 10 -8 10 -17 0
-15 2 -16 10 -3 8 13 10 12 10 -2 0 -10 -7 -18 -15 -18 -8 0 -15 -9 -15 -20 0
-13 -7 -20 -19 -20 -34 0 -36 -84 -2 -93 14 -3 16 1 13 23 -2 15 3 41 12 59
l17 31 93 0 c115 0 156 7 149 26 -3 8 -9 11 -14 8 -5 -3 -9 0 -9 6 0 6 -11 15
-25 20 -30 11 -32 26 -6 40 14 7 17 16 13 32 -5 21 -6 21 -19 -10 -8 -21 -20
-32 -33 -32 -19 0 -25 13 -33 70 -3 23 -4 22 -11 -9z"/>
<path d="M925 371 c-4 -13 -12 -18 -22 -14 -8 3 -18 1 -22 -5 -3 -6 -19 -14
-34 -17 -25 -7 -27 -5 -27 21 l0 29 -13 -25 c-11 -21 -11 -26 1 -28 7 -2 11
-10 8 -18 -3 -8 -1 -14 3 -14 5 0 7 -9 4 -20 -5 -19 0 -20 96 -20 96 0 102 -1
110 -22 10 -25 46 -59 54 -51 3 3 3 -4 0 -16 -3 -13 -1 -21 6 -21 7 0 9 -5 5
-12 -5 -7 -2 -9 7 -6 12 5 14 -1 11 -23 -2 -16 -8 -27 -12 -24 -4 3 -10 -2
-14 -10 -3 -8 -12 -15 -20 -15 -8 0 -17 -3 -19 -8 -3 -4 14 -6 36 -6 73 3 71
2 57 19 -8 9 -10 29 -7 51 4 20 2 45 -3 55 -6 10 -6 27 -2 40 l9 22 16 -23 c9
-13 20 -21 24 -16 4 4 -14 27 -40 53 -27 26 -47 39 -47 31 0 -8 3 -18 7 -21 3
-4 7 -20 7 -36 1 -25 -2 -28 -16 -20 -10 5 -17 17 -16 27 1 9 0 32 0 51 -2 32
-3 33 -20 18 -23 -21 -39 -22 -22 -2 11 13 7 15 -23 15 -28 0 -35 -3 -31 -15
4 -8 2 -15 -4 -15 -5 0 -12 10 -15 21 -4 15 -11 20 -22 15 -9 -3 -30 -6 -46
-6 -27 0 -30 -3 -24 -22 6 -18 4 -20 -5 -12 -21 21 -7 49 28 54 22 3 37 13 47
33 7 15 10 27 5 27 -5 0 -11 -9 -15 -19z"/>
<path d="M1050 375 c0 -8 -9 -15 -20 -15 -24 0 -27 -25 -4 -34 23 -9 27 -8 21
8 -5 13 23 48 29 36 1 -3 6 -1 11 4 5 5 3 6 -4 2 -7 -4 -13 -2 -13 3 0 6 -4
11 -10 11 -5 0 -10 -7 -10 -15z"/>
<path d="M1256 379 c11 -18 -10 -41 -32 -36 -13 2 -24 0 -24 -4 0 -5 14 -9 30
-9 20 0 30 -5 30 -15 0 -8 3 -15 8 -15 4 0 7 17 7 37 0 22 5 38 12 38 6 0 15
4 19 8 4 4 -6 7 -23 5 -18 -1 -30 -5 -27 -9z"/>
<path d="M2500 375 c0 -9 -6 -12 -15 -9 -8 4 -15 1 -15 -5 0 -6 -13 -11 -30
-11 -16 0 -30 -4 -30 -9 0 -5 9 -7 20 -4 16 4 19 0 17 -23 l-2 -29 113 -3 c93
-2 112 0 112 12 0 21 42 48 54 36 6 -6 14 -10 18 -10 12 0 10 38 -2 45 -5 3
-10 1 -10 -4 0 -18 -18 -12 -23 7 -4 16 -5 16 -6 0 0 -10 -5 -18 -11 -18 -5 0
-11 8 -11 18 -1 9 -4 4 -8 -13 -6 -29 -9 -30 -54 -27 -36 2 -47 0 -47 -11 0
-8 -7 -18 -16 -21 -22 -8 -24 -8 -24 7 0 7 -10 18 -22 23 -13 6 -17 9 -10 7 7
-1 11 1 7 6 -7 13 5 42 16 36 4 -3 6 -12 2 -20 -3 -11 -1 -13 10 -9 8 3 17 14
20 25 4 15 0 19 -24 19 -19 0 -29 -5 -29 -15z"/>
<path d="M1095 349 c-5 -15 -1 -25 14 -35 12 -9 21 -21 21 -29 0 -36 32 -38
514 -31 259 3 474 10 479 15 5 5 6 19 2 31 -5 16 -10 19 -18 11 -6 -6 -19 -11
-29 -11 -10 0 -18 -3 -18 -8 0 -4 -20 -6 -45 -4 -28 3 -45 9 -45 17 0 7 -9 15
-20 18 -16 4 -18 2 -10 -12 8 -16 3 -18 -38 -20 -25 -1 -49 -6 -53 -12 -3 -6
-9 -1 -13 13 -4 14 -9 19 -13 12 -11 -15 -115 -25 -106 -10 5 8 3 8 -8 0 -15
-12 -58 -12 -77 0 -7 4 -12 2 -12 -3 0 -14 -37 -14 -45 -1 -3 5 -12 7 -20 4
-7 -3 -23 0 -35 6 -20 11 -21 10 -15 -10 7 -21 5 -21 -52 -15 -32 4 -59 12
-61 16 -2 5 -12 4 -23 -1 -13 -8 -26 -7 -41 1 -16 9 -23 9 -26 0 -5 -15 -132
-15 -132 0 0 7 15 10 40 7 22 -2 40 0 40 4 0 5 -30 8 -66 8 -65 0 -66 0 -60
24 8 31 -20 44 -29 15z"/>
<path d="M2680 165 c0 -16 -3 -53 -6 -81 -5 -43 -11 -53 -33 -62 -20 -9 -21
-11 -4 -8 11 2 39 0 60 -3 22 -4 48 -4 59 0 15 6 12 8 -13 8 -30 1 -32 3 -28
29 2 15 6 54 9 87 5 58 5 60 -19 60 -21 0 -25 -5 -25 -30z"/>
<path d="M381 72 c-7 -29 -10 -56 -7 -59 12 -12 33 -11 33 1 0 6 3 31 6 56 5
29 4 38 -2 25 -8 -19 -9 -18 -13 5 -3 20 -7 13 -17 -28z"/>
<path d="M447 71 c-28 -50 -33 -71 -19 -71 10 0 56 109 50 116 -3 2 -17 -18
-31 -45z"/>
<path d="M310 98 c1 -7 12 -33 25 -58 l25 -45 -6 40 c-4 22 -11 48 -16 58 -10
20 -28 23 -28 5z"/>
<path d="M257 54 c28 -39 49 -57 63 -52 6 2 -11 21 -37 43 -45 38 -47 38 -26
9z"/>
<path d="M484 29 c-28 -30 -28 -31 -6 -27 12 1 23 8 23 13 1 6 5 18 10 28 14
25 7 21 -27 -14z"/>
<path d="M48 45 c-4 -4 -4 -14 -1 -23 5 -11 3 -13 -7 -7 -8 5 -11 4 -6 -3 3
-6 19 -10 35 -10 26 1 28 3 18 19 -6 10 -14 16 -18 13 -4 -2 -9 1 -11 7 -2 5
-6 7 -10 4z"/>
</g>
</svg>
