<svg version="1.0" xmlns="http://www.w3.org/2000/svg" width="300.000000pt" height="269.000000pt" viewBox="0 0 300.000000 269.000000" preserveAspectRatio="xMidYMid meet">
<metadata fill="#eabe70">
Created by potrace 1.10, written by Peter Selinger 2001-2011
</metadata>
<g transform="translate(0.000000,269.000000) scale(0.100000,-0.100000)" fill="#eabe70" stroke="none">
<path d="M1305 2620 c-236 -25 -505 -153 -677 -322 -310 -305 -437 -713 -357 -1151 22 -125 97 -313 164 -412 66 -99 152 -198 211 -246 107 -86 202 -151 208 -141 7 12 -29 43 -78 68 -21 10 -40 25 -43 32 -3 6 -11 12 -17 12 -27 0 -56 46 -56 88 0 23 -5 42 -10 42 -6 0 -9 -12 -8 -26 4 -33 -17 -42 -32 -15 -8 15 -8 39 1 86 13 74 35 85 32 16 -1 -22 2 -41 8 -41 5 0 9 9 9 19 0 11 4 22 9 26 18 10 26 -20 26 -92 0 -44 5 -77 12 -84 10 -10 12 2 8 60 -4 65 -3 72 13 69 14 -3 17 -15 17 -67 0 -38 5 -66 11 -68 8 -2 10 12 6 47 -4 40 -2 50 11 50 8 0 -24 40 -72 88 l-86 88 -12 -50 c-7 -28 -12 -66 -13 -83 0 -18 -4 -33 -8 -33 -17 0 -31 49 -27 97 3 34 2 42 -5 28 -5 -11 -9 -30 -9 -42 -1 -13 -5 -23 -11 -23 -13 0 -23 64 -16 105 4 22 3 35 -4 35 -10 0 -13 -17 -10 -62 1 -16 -1 -28 -4 -28 -8 0 -66 90 -66 104 0 7 -9 21 -20 31 -11 10 -20 28 -20 40 0 13 -7 28 -15 35 -8 7 -15 25 -15 40 0 15 -7 33 -16 41 -10 8 -14 24 -12 46 3 24 0 33 -10 33 -11 0 -13 8 -9 29 4 20 2 31 -8 35 -17 6 -20 52 -5 61 16 10 12 25 -6 18 -12 -4 -14 0 -8 21 4 17 2 26 -6 26 -12 0 -9 24 7 66 4 11 2 15 -4 11 -15 -10 -25 80 -12 105 8 15 8 22 -1 28 -10 6 -9 15 3 39 9 17 11 28 5 25 -16 -10 1 96 19 125 12 18 13 26 4 29 -9 3 -8 11 4 28 9 14 13 28 10 33 -12 20 112 286 142 304 7 4 13 16 13 27 0 10 12 29 28 42 15 13 28 30 30 37 4 21 135 161 150 161 7 0 15 7 19 15 7 20 55 45 85 45 24 0 108 -21 141 -35 25 -11 21 12 -4 26 -12 6 -54 15 -93 18 l-71 8 39 17 c37 17 44 17 105 2 37 -9 71 -23 77 -31 11 -14 44 -11 44 4 0 10 -86 42 -130 48 -40 6 -56 23 -22 23 11 0 30 9 43 21 16 14 33 19 52 16 19 -2 26 0 23 9 -6 15 15 24 52 24 34 0 110 -34 139 -62 13 -12 26 -18 30 -14 13 13 -56 63 -103 77 -33 10 -40 15 -29 22 32 18 129 -21 172 -69 24 -26 33 -30 33 -14 0 25 -88 90 -122 90 -10 0 -18 5 -18 10 0 18 60 10 108 -14 26 -13 55 -38 65 -54 12 -22 22 -29 36 -25 18 4 16 9 -17 40 -20 19 -51 41 -69 49 -42 18 -51 34 -19 34 35 0 116 -52 141 -90 19 -29 43 -43 31 -17 -3 6 -9 19 -12 28 -3 9 -30 32 -60 52 -47 31 -52 36 -32 39 45 8 130 -57 144 -109 3 -13 10 -23 15 -23 27 0 -9 69 -58 109 l-38 31 30 0 c38 -1 66 -24 110 -91 19 -30 35 -47 35 -40 0 22 -48 98 -73 117 l-22 16 30 -5 c17 -2 39 -8 49 -12 15 -6 17 -5 11 5 -6 10 0 11 26 6 19 -4 48 -6 66 -6 19 0 41 -8 56 -22 29 -26 67 -94 67 -120 0 -10 5 -18 10 -18 23 0 0 63 -47 129 l-18 24 30 -7 c17 -4 34 -14 38 -22 4 -8 13 -14 18 -14 6 0 7 5 4 10 -9 14 2 12 33 -4 15 -8 39 -17 54 -20 33 -7 80 -85 86 -141 4 -47 13 -60 53 -74 23 -8 29 -7 30 5 1 7 2 20 3 27 1 6 -2 30 -7 52 -6 22 -10 50 -11 63 -1 18 -16 29 -76 57 -198 90 -412 121 -655 95z m682 -125 c24 -17 43 -71 43 -123 0 -29 -2 -32 -19 -23 -12 7 -21 26 -25 54 -4 23 -15 57 -26 75 -22 36 -10 43 27 17z" fill="#eabe70"/>
<path d="M1874 2591 c4 -6 13 -11 19 -11 26 0 208 -99 286 -155 94 -68 266 -241 315 -318 100 -157 176 -346 196 -487 19 -132 20 -144 24 -215 8 -178 -47 -416 -136 -583 -196 -369 -538 -605 -963 -662 -193 -27 -464 16 -627 98 -5 2 -8 -3 -8 -11 0 -28 223 -92 374 -108 330 -35 688 76 942 292 144 122 268 294 342 475 56 137 78 232 96 415 7 71 -14 285 -38 385 -68 284 -235 533 -483 720 -112 84 -365 208 -339 165z" fill="#eabe70"/>
<path d="M1640 2574 c0 -5 11 -26 25 -46 14 -20 25 -46 25 -57 0 -12 5 -21 10 -21 19 0 10 41 -17 78 -38 52 -43 58 -43 46z" fill="#eabe70"/>
<path d="M1570 2566 c0 -4 9 -21 20 -36 11 -15 25 -38 30 -51 9 -21 10 -19 5 11 -5 30 -55 100 -55 76z" fill="#eabe70"/>
<path d="M1825 2475 c8 -47 13 -57 25 -50 10 6 -7 64 -23 80 -6 7 -7 -4 -2 -30z" fill="#eabe70"/>
<path d="M1010 2489 c0 -5 8 -12 18 -15 44 -14 92 -38 92 -46 0 -11 27 -10 35 2 7 11 -65 50 -112 61 -19 4 -33 3 -33 -2z" fill="#eabe70"/>
<path d="M1896 2438 c9 -52 14 -62 24 -52 11 11 -6 84 -20 84 -5 0 -7 -15 -4 -32z" fill="#eabe70"/>
<path d="M2075 2444 c9 -14 19 -50 22 -80 7 -61 23 -73 23 -17 0 40 -19 104 -35 115 -21 16 -27 7 -10 -18z" fill="#eabe70"/>
<path d="M944 2452 c4 -7 14 -12 22 -12 8 0 32 -9 54 -20 41 -21 60 -25 60 -12 0 9 -72 41 -113 49 -21 4 -28 3 -23 -5z" fill="#eabe70"/>
<path d="M1317 2440 c-113 -18 -193 -42 -294 -90 -253 -120 -451 -341 -542 -605 -52 -154 -65 -342 -37 -530 18 -118 40 -187 97 -298 83 -165 223 -315 371 -401 73 -41 145 -76 158 -76 21 0 -1 20 -47 41 -215 98 -402 292 -495 514 -47 114 -48 119 -3 111 22 -4 35 -3 35 4 0 5 -18 10 -40 10 -25 0 -40 5 -41 13 -3 26 -8 54 -18 106 -6 29 -11 78 -11 107 0 45 3 54 18 55 13 0 12 2 -5 9 -24 10 -27 18 -15 37 6 9 19 5 50 -16 53 -35 79 -68 58 -73 -11 -2 -9 -10 10 -33 l25 -30 -7 65 c-6 63 -32 131 -55 145 -21 14 -19 -4 6 -40 37 -55 33 -73 -7 -35 -12 11 -34 26 -50 32 -32 14 -33 24 -14 128 9 53 14 64 29 62 9 -2 17 2 17 8 0 5 -7 10 -16 10 -11 0 -14 6 -8 23 9 31 11 32 37 14 26 -17 75 -102 65 -113 -4 -3 -18 7 -32 22 -13 16 -27 26 -31 23 -3 -4 5 -19 19 -34 15 -16 26 -34 26 -41 0 -7 3 -21 6 -31 3 -11 -2 -8 -16 10 -12 15 -27 27 -33 27 -6 0 -1 -10 11 -23 12 -13 25 -37 28 -55 8 -41 24 -31 24 16 0 20 4 52 10 71 7 25 6 41 -6 65 -21 40 -64 86 -82 86 -18 0 -10 23 40 128 40 81 53 93 76 70 17 -17 15 2 -2 21 -17 19 -5 48 14 36 15 -9 49 -84 50 -107 0 -24 -16 -23 -23 2 -3 11 -10 20 -16 20 -8 0 -9 -6 -1 -19 5 -11 10 -30 10 -43 -1 -23 -1 -23 -16 -3 -9 11 -22 29 -30 39 -7 11 -16 17 -20 14 -3 -4 4 -20 17 -37 12 -16 25 -47 28 -68 l7 -38 43 80 c23 44 43 89 43 100 1 28 -33 103 -39 87 -3 -7 0 -18 5 -25 12 -14 22 -73 14 -81 -3 -3 -14 13 -24 36 -10 22 -26 47 -35 53 -16 12 -14 16 17 51 19 22 38 39 44 39 14 0 37 -95 31 -127 -7 -40 4 -34 53 27 37 47 42 60 42 104 0 27 -5 62 -10 77 -10 26 0 54 20 54 12 0 20 -104 10 -139 l-9 -32 34 28 c38 32 47 61 44 138 -2 52 11 88 27 72 13 -13 12 -80 -2 -119 -8 -22 -14 -42 -14 -44 0 -2 15 6 34 18 38 25 66 92 66 158 0 36 12 50 41 50 12 0 3 -61 -17 -113 -16 -44 -17 -47 -5 -47 16 0 41 79 41 130 0 28 4 50 9 50 5 0 16 3 25 6 23 9 21 -36 -5 -97 -12 -27 -19 -52 -17 -55 11 -10 40 50 51 104 6 31 11 58 11 58 1 1 11 5 24 8 19 6 22 4 22 -17 0 -14 -14 -51 -30 -82 -22 -42 -26 -56 -14 -51 9 3 18 6 20 6 2 0 4 9 4 19 0 11 4 22 9 26 5 3 15 30 22 60 9 42 16 55 31 55 10 0 18 -7 18 -15 0 -22 -28 -86 -47 -107 -17 -19 -12 -35 7 -23 19 12 50 87 50 123 0 28 3 32 26 32 25 0 26 -2 20 -32 -4 -18 -18 -50 -31 -70 -17 -26 -21 -38 -12 -38 24 0 59 76 66 143 1 4 10 7 21 7 36 0 18 -71 -29 -114 -26 -23 -27 -36 -3 -29 19 5 57 71 67 116 4 21 11 27 31 27 23 0 25 -3 19 -27 -3 -16 -20 -45 -37 -66 -16 -21 -27 -41 -24 -45 11 -10 54 46 72 94 14 36 21 44 41 44 18 0 23 -4 19 -15 -3 -8 -9 -22 -12 -30 -3 -8 -2 -15 4 -15 6 0 15 13 20 29 9 25 15 29 39 27 15 -2 29 -4 31 -5 2 0 -6 -14 -17 -30 -12 -16 -21 -34 -21 -41 0 -20 22 1 36 36 15 35 21 38 48 28 22 -8 20 -18 -10 -54 -15 -17 -23 -34 -19 -38 8 -8 55 47 55 65 0 17 15 24 34 17 20 -8 20 -23 -1 -46 -9 -10 -11 -18 -5 -18 6 0 19 11 30 24 23 30 67 26 57 -5 -4 -11 -2 -19 4 -19 6 0 11 5 11 10 0 13 31 13 50 0 13 -9 9 -15 -19 -40 -19 -16 -47 -32 -62 -35 -16 -4 -31 -11 -34 -16 -10 -16 29 -10 55 8 14 10 25 15 26 13 0 -3 18 10 38 28 21 18 37 35 35 37 -14 13 -147 67 -186 75 -26 5 -59 12 -73 15 -47 11 -275 14 -333 5z m-287 -123 c0 -28 -32 -133 -44 -145 -11 -12 -12 -7 -6 26 4 22 5 54 2 72 -3 25 0 37 14 47 23 16 34 17 34 0z m-119 -84 c3 -74 -6 -123 -22 -123 -6 0 -8 8 -4 19 3 10 1 38 -4 62 -7 30 -6 47 1 56 17 21 28 15 29 -14z m-96 -75 c4 -11 7 -43 7 -70 0 -37 -5 -54 -21 -69 -11 -11 -21 -24 -21 -29 0 -6 -4 -10 -9 -10 -5 0 -8 10 -8 23 0 12 -10 42 -21 64 -20 42 -20 42 0 60 17 15 21 15 30 3 8 -12 9 -11 4 4 -6 18 9 46 25 46 4 0 11 -10 14 -22z" fill="#eabe70"/>
<path d="M780 2083 c0 -17 5 -35 10 -38 13 -8 13 35 0 55 -7 11 -10 7 -10 -17z" fill="#eabe70"/>
<path d="M2130 2427 c0 -3 9 -24 20 -48 11 -24 20 -61 20 -81 0 -21 5 -38 10 -38 27 0 -9 158 -39 168 -6 2 -11 2 -11 -1z" fill="#eabe70"/>
<path d="M758 2328 c-9 -5 -7 -8 7 -8 11 0 30 -3 43 -6 12 -4 22 -2 22 4 0 13 -56 21 -72 10z" fill="#eabe70"/>
<path d="M1663 2307 c-25 -11 -31 -27 -9 -27 14 0 42 28 35 34 -2 2 -14 -1 -26 -7z" fill="#eabe70"/>
<path d="M1949 2306 c14 -17 51 -28 51 -15 0 10 -33 29 -51 29 -9 0 -9 -3 0 -14z" fill="#eabe70"/>
<path d="M2270 2315 c0 -4 7 -20 16 -36 9 -19 14 -50 13 -80 -3 -53 5 -73 16 -39 9 28 -3 131 -17 148 -11 12 -28 17 -28 7z" fill="#eabe70"/>
<path d="M2070 2306 c0 -2 55 -60 123 -128 173 -173 262 -328 318 -556 27 -110 29 -326 4 -442 -38 -177 -114 -341 -213 -456 -81 -96 -124 -135 -221 -202 -183 -128 -371 -188 -596 -191 -209 -3 -412 58 -607 182 -58 38 -78 45 -78 27 0 -5 5 -10 12 -10 6 0 19 -7 29 -16 23 -21 66 -46 177 -101 59 -29 92 -52 92 -62 0 -12 2 -13 8 -3 6 8 19 10 40 6 24 -5 32 -12 32 -28 0 -19 23 -68 55 -118 6 -8 28 -18 50 -22 l40 -7 -40 23 c-41 24 -94 91 -95 121 0 20 22 22 53 5 27 -14 356 -22 390 -9 16 6 28 6 36 -2 8 -8 11 -8 11 0 0 7 9 14 20 18 14 4 27 -2 45 -22 13 -15 25 -23 25 -16 0 6 -4 15 -10 18 -5 3 -10 13 -10 21 0 25 33 15 61 -18 16 -18 28 -27 29 -20 0 6 -9 21 -20 32 -27 27 -25 40 4 40 13 0 38 8 54 17 32 18 36 17 111 -28 18 -11 40 -18 47 -15 7 3 14 0 16 -6 3 -7 12 -9 22 -5 24 9 10 27 -21 27 -31 0 -113 37 -113 51 0 18 44 28 61 13 8 -8 41 -23 73 -34 52 -17 61 -18 84 -5 29 15 25 18 -24 15 -29 -1 -109 24 -128 41 -4 4 1 12 13 18 16 9 28 8 58 -7 50 -25 83 -35 83 -25 0 4 -23 18 -52 31 -50 22 -51 23 -30 38 13 9 31 13 43 9 18 -6 20 -4 14 14 -9 28 17 38 47 17 26 -18 38 -20 38 -6 0 6 -12 15 -27 21 -25 9 -25 11 -10 26 14 15 22 15 50 5 18 -7 53 -12 78 -12 l44 -1 -30 -24 c-16 -13 -26 -27 -22 -31 10 -10 157 147 157 167 0 5 -13 0 -29 -12 -24 -18 -39 -21 -85 -17 -64 5 -74 11 -56 33 9 11 22 14 46 9 35 -6 130 11 152 29 6 5 12 16 12 25 0 13 -3 13 -19 -2 -20 -19 -146 -45 -157 -33 -4 4 3 18 16 32 18 19 31 24 50 21 14 -3 50 0 80 8 63 14 68 21 130 165 26 62 34 91 25 91 -15 0 -29 -27 -26 -50 1 -9 -8 -26 -19 -38 -12 -12 -18 -27 -15 -32 11 -17 -32 -47 -79 -54 -25 -4 -46 -12 -46 -18 0 -11 52 -7 84 7 14 6 18 5 14 -6 -10 -33 -158 -74 -158 -43 0 8 9 19 19 26 10 6 17 17 14 23 -2 7 4 20 14 30 9 10 19 27 20 38 5 29 22 47 39 40 8 -3 14 0 14 6 0 6 -7 11 -16 11 -9 0 -14 6 -12 13 3 6 13 39 22 72 10 33 23 71 28 85 6 14 10 39 9 55 -2 35 5 46 39 63 l25 12 -27 -5 c-25 -5 -28 -3 -26 21 2 17 12 31 29 40 43 22 89 65 89 82 -1 15 -2 15 -11 0 -8 -15 -91 -78 -101 -78 -2 0 -3 30 -2 66 1 44 6 69 15 75 11 7 10 9 -3 9 -27 0 -22 36 11 78 15 20 34 53 41 72 7 19 19 42 27 51 7 9 11 24 7 33 -8 20 -24 21 -24 0 0 -40 -70 -171 -84 -157 -11 11 -7 58 7 72 10 11 9 13 -5 8 -14 -5 -19 2 -24 30 -4 20 -3 42 2 48 43 58 47 65 58 132 1 7 5 15 8 19 9 8 -12 54 -24 54 -5 0 -7 -13 -3 -29 8 -36 -10 -109 -35 -141 -17 -21 -21 -23 -30 -10 -15 22 -12 66 5 80 8 7 15 21 15 31 0 10 5 21 10 24 12 8 13 125 1 125 -4 0 -11 -28 -13 -63 -3 -35 -13 -78 -23 -97 l-18 -35 -14 34 c-8 19 -12 46 -8 60 4 19 3 22 -4 11 -7 -10 -13 -11 -20 -5 -17 18 -16 49 3 77 10 15 20 53 23 85 4 48 2 61 -13 73 -16 14 -17 13 -10 -10 12 -37 9 -77 -10 -126 -19 -50 -27 -54 -41 -22 -7 17 -5 33 10 67 15 33 18 57 14 94 -7 51 -12 65 -23 54 -4 -3 -1 -21 5 -38 9 -26 8 -43 -5 -81 -14 -45 -34 -72 -34 -49 0 6 -24 39 -53 74 l-54 62 5 63 c3 42 1 62 -7 62 -7 0 -11 -20 -11 -50 0 -27 -3 -50 -6 -50 -4 0 -19 12 -34 28 -58 60 -120 105 -120 88z m306 -1673 c49 5 55 -9 13 -30 -44 -23 -149 -14 -149 13 0 22 31 33 62 22 16 -6 50 -8 74 -5z" fill="#eabe70"/>
<path d="M770 2271 c0 -11 40 -22 52 -15 5 3 6 10 3 15 -8 12 -55 12 -55 0z" fill="#eabe70"/>
<path d="M1325 2264 c-186 -39 -332 -116 -463 -243 -117 -115 -188 -239 -233 -406 -32 -121 -32 -308 1 -435 54 -209 173 -380 347 -498 64 -43 97 -55 73 -27 -18 21 -8 106 16 138 24 33 34 34 34 3 0 -57 58 -164 81 -150 5 3 9 21 9 40 0 19 4 34 9 34 14 0 22 -46 15 -90 l-7 -41 -26 17 c-14 9 -34 25 -44 36 -10 12 -20 18 -24 14 -3 -3 1 -14 10 -24 10 -10 15 -21 11 -24 -8 -9 83 -41 94 -34 6 3 8 15 5 26 -3 11 0 27 8 36 10 12 8 23 -12 64 -13 28 -27 50 -30 50 -7 0 -21 -35 -23 -57 -3 -31 -16 -19 -35 32 -24 63 -27 105 -9 123 23 23 38 13 38 -23 0 -50 18 -44 22 7 2 30 8 44 19 46 13 2 17 -9 22 -53 3 -31 16 -77 28 -103 24 -49 84 -122 101 -122 12 0 1 50 -13 65 -7 7 -8 4 -4 -8 13 -33 -10 -16 -39 29 -55 87 -75 207 -37 219 47 15 113 170 96 225 -7 23 -6 24 32 9 15 -7 39 -11 53 -10 36 2 57 -19 76 -74 11 -34 14 -64 9 -98 -7 -58 -19 -83 -80 -170 -43 -63 -64 -121 -57 -164 4 -30 64 -93 87 -93 15 0 11 9 -22 43 -41 42 -43 50 -34 120 1 5 18 -5 39 -21 39 -31 134 -82 152 -82 16 0 12 20 -10 47 -23 29 -21 37 5 27 9 -4 26 -25 36 -48 15 -35 16 -42 3 -49 -22 -12 -8 -25 21 -19 25 4 35 35 15 47 -5 3 -10 15 -10 26 0 15 5 18 23 15 46 -11 66 -11 67 -1 1 6 -18 11 -42 13 -57 4 -136 43 -195 96 -42 38 -46 45 -34 60 12 14 19 11 68 -34 66 -60 91 -74 161 -89 65 -13 82 -14 82 -2 0 6 -21 13 -47 16 -70 10 -121 36 -180 89 -53 48 -63 72 -42 93 7 7 14 45 17 86 4 60 1 80 -16 113 -25 50 -26 60 -2 56 11 -2 20 1 20 6 0 17 57 34 90 27 33 -7 102 -71 128 -120 11 -21 18 -69 22 -160 6 -147 18 -176 76 -197 42 -15 43 -27 4 -34 -32 -7 -39 -18 -16 -27 12 -5 116 56 116 68 0 2 -13 2 -29 -1 -34 -7 -96 19 -105 44 -3 9 -9 23 -12 31 -5 10 -1 13 15 8 11 -3 21 -1 21 3 0 5 -10 10 -22 12 -15 2 -24 11 -26 26 -4 25 11 28 55 11 15 -6 52 -10 81 -10 67 0 122 -28 97 -49 -9 -7 -13 -15 -10 -18 6 -6 55 37 55 49 0 4 -11 10 -25 13 -29 7 -34 26 -7 26 48 0 170 110 159 143 -2 6 -12 -1 -22 -17 -32 -48 -146 -115 -207 -121 -72 -7 -172 14 -176 38 -3 15 1 17 22 11 34 -8 34 9 0 25 -17 8 -24 17 -20 27 21 55 -62 184 -142 220 l-46 21 49 12 c58 13 84 14 145 7 l45 -6 -40 16 c-40 15 -110 15 -149 -1 -16 -7 -14 0 11 46 35 64 87 103 159 120 44 10 59 9 105 -6 30 -10 63 -24 74 -31 22 -16 35 -18 35 -5 0 4 -28 21 -62 36 -79 36 -150 36 -220 2 -46 -23 -64 -17 -36 11 9 9 9 12 -1 12 -22 0 -6 64 29 114 17 25 47 58 67 73 34 27 43 28 167 33 106 4 136 9 159 24 32 21 49 10 40 -25 -3 -10 0 -19 6 -19 6 0 11 19 11 45 0 25 -3 45 -7 45 -3 0 -30 -12 -60 -26 -50 -25 -61 -26 -144 -21 -136 9 -209 -27 -261 -127 -17 -33 -22 -37 -29 -23 -7 11 -5 26 6 47 8 16 11 30 6 30 -5 0 -11 -10 -15 -22 l-6 -23 -17 25 c-9 14 -19 27 -22 30 -28 25 -31 39 -20 91 22 103 59 146 182 211 42 22 88 54 102 72 14 17 30 37 36 44 11 13 4 32 -11 32 -6 0 -16 -15 -23 -32 -17 -41 -23 -45 -122 -97 -123 -64 -185 -145 -185 -240 0 -22 -5 -31 -16 -31 -15 0 -16 10 -11 73 3 42 2 64 -3 52 -5 -11 -9 -39 -9 -63 -1 -41 -2 -42 -28 -36 -57 12 -124 119 -125 199 -1 51 14 91 58 157 33 48 61 146 50 174 -9 24 -25 7 -22 -24 3 -38 -19 -99 -58 -157 -41 -59 -60 -125 -51 -173 8 -43 54 -142 66 -142 5 0 9 -4 9 -10 0 -6 -9 -6 -26 0 -33 13 -34 13 -28 -4 3 -7 26 -16 54 -19 131 -16 237 -170 208 -300 -18 -84 -87 -169 -146 -183 -15 -4 -31 -10 -37 -14 -18 -13 -103 -10 -141 6 -20 8 -58 37 -86 65 -27 27 -51 49 -52 49 -2 0 -6 -10 -10 -23 -11 -45 -65 -106 -116 -132 -55 -28 -68 -29 -180 -20 -73 7 -76 6 -123 -25 -26 -18 -56 -48 -66 -67 l-18 -35 -22 42 c-12 24 -30 65 -41 91 l-18 49 30 25 c18 15 37 23 47 20 12 -4 21 3 29 20 14 31 10 31 -53 0 -27 -14 -53 -25 -56 -25 -3 0 -9 28 -12 62 -4 35 -9 73 -13 84 -4 17 2 26 28 42 19 12 43 21 53 20 11 -1 30 2 43 6 28 9 28 -5 1 -30 -33 -30 -76 -87 -83 -111 -12 -38 18 -27 32 11 7 18 34 54 61 79 50 47 76 52 102 21 6 -8 18 -14 25 -14 19 0 17 -16 -4 -32 -30 -22 -81 -93 -101 -141 -26 -59 -37 -117 -23 -117 15 0 25 18 27 50 3 36 51 123 96 173 l35 41 45 -18 c66 -27 139 -22 202 11 l52 28 10 72 c8 50 18 80 33 96 23 24 29 47 13 47 -5 0 -13 -9 -16 -21 -7 -22 -42 -39 -80 -39 -33 0 -116 29 -138 48 -9 8 -20 13 -23 9 -22 -22 91 -77 160 -77 45 0 48 -1 41 -22 -3 -13 -8 -33 -10 -44 -6 -39 -24 -62 -68 -83 -76 -37 -154 -25 -237 35 -28 20 -68 37 -107 45 -61 13 -77 10 -165 -29 -5 -2 -8 3 -8 12 0 9 6 16 13 16 9 0 9 2 -1 9 -11 6 -11 23 -3 81 5 39 13 75 16 78 4 4 27 7 53 7 62 0 91 18 42 25 -19 4 -45 3 -57 -2 -30 -10 -36 4 -19 44 8 18 22 53 32 78 10 25 23 48 29 53 15 11 149 1 153 -12 2 -6 -5 -11 -16 -11 -27 0 -102 -43 -136 -78 -42 -44 -15 -47 31 -4 38 37 97 62 142 62 31 0 22 20 -20 48 -28 20 -44 23 -90 20 l-57 -4 16 25 c24 39 76 106 85 109 4 2 26 22 48 43 23 22 55 43 71 46 15 3 31 10 35 16 4 7 -5 8 -25 4 -18 -4 -32 -5 -32 -3 0 2 19 16 43 32 29 19 53 27 77 26 26 -2 31 0 20 8 -23 16 6 30 63 30 26 0 47 5 47 10 0 6 -10 10 -22 10 -30 0 -14 12 33 26 34 10 42 9 63 -7 15 -12 27 -15 31 -9 3 6 -4 14 -17 19 l-23 9 28 11 c16 6 49 11 75 11 26 0 61 4 79 9 25 7 35 6 44 -6 11 -13 8 -14 -27 -8 l-39 7 32 -21 c40 -25 57 -56 49 -92 -3 -16 -1 -29 3 -29 16 0 23 57 12 97 -14 51 -14 53 9 53 11 0 20 5 20 10 0 10 -162 12 -205 4z m-35 -1060 c6 -14 14 -23 19 -20 29 18 43 -80 22 -154 -18 -61 -78 -116 -150 -137 -83 -23 -137 -72 -157 -138 -8 -30 -13 -59 -9 -65 3 -5 2 -10 -2 -10 -11 0 -37 31 -47 55 -5 15 -9 16 -15 6 -6 -9 -18 -4 -46 22 -38 35 -38 36 -21 61 18 29 36 34 36 11 0 -8 3 -15 8 -15 4 0 7 33 7 73 0 39 4 89 8 111 6 28 5 37 -4 34 -7 -2 -13 -15 -15 -29 -1 -13 -5 -33 -7 -44 -3 -11 -6 -31 -7 -45 0 -14 -14 -41 -31 -60 l-30 -35 -49 54 c-53 58 -57 69 -39 104 15 29 89 101 96 93 3 -3 1 -18 -5 -33 -20 -50 -19 -157 1 -150 8 2 11 19 9 49 -3 44 9 110 27 136 6 10 22 12 64 7 l55 -7 -19 -42 c-27 -61 -34 -147 -19 -212 7 -30 17 -54 21 -54 14 0 21 41 9 56 -9 9 -11 39 -8 92 6 97 35 162 74 162 13 0 39 6 57 14 36 15 127 103 127 123 0 23 30 14 40 -13z m207 -447 c4 -7 27 -28 50 -47 24 -18 41 -36 38 -38 -3 -3 2 -17 11 -30 16 -25 16 -25 -12 -18 -33 9 -144 85 -144 99 0 13 30 47 41 47 4 0 12 -6 16 -13z" fill="#eabe70"/>
<path d="M1555 2261 c-3 -6 11 -19 32 -30 58 -30 118 -86 143 -133 31 -60 53 -136 46 -164 -5 -19 -3 -22 10 -17 12 5 15 15 10 47 -3 23 -7 50 -9 62 -1 11 -7 27 -13 35 -6 8 -15 25 -19 38 -11 36 -134 153 -175 166 -10 3 -21 1 -25 -4z" fill="#eabe70"/>
<path d="M2334 2240 c16 -59 18 -91 7 -121 -12 -35 -7 -49 11 -31 19 19 14 141 -7 160 -17 16 -17 16 -11 -8z" fill="#eabe70"/>
<path d="M1833 2243 c-13 -2 -23 -8 -23 -12 0 -10 70 -34 78 -26 9 9 -20 26 -35 20 -23 -8 -14 5 10 15 23 9 9 11 -30 3z" fill="#eabe70"/>
<path d="M687 2224 c-13 -13 5 -24 39 -24 19 0 34 5 34 10 0 6 -9 10 -19 10 -11 0 -26 2 -33 5 -8 3 -17 3 -21 -1z" fill="#eabe70"/>
<path d="M2090 2222 c0 -13 45 -52 60 -52 8 0 2 12 -15 30 -28 30 -45 38 -45 22z" fill="#eabe70"/>
<path d="M1317 2213 c-4 -3 3 -17 15 -30 25 -26 19 -40 -10 -24 -25 13 -42 14 -42 2 0 -4 20 -16 44 -25 59 -23 126 -72 126 -94 1 -14 4 -13 21 8 l20 24 -22 9 c-40 14 -87 56 -110 97 -23 40 -30 46 -42 33z" fill="#eabe70"/>
<path d="M1770 2206 c0 -2 16 -13 35 -25 41 -24 85 -106 85 -159 0 -23 4 -32 13 -29 38 13 -14 155 -73 195 -29 20 -60 29 -60 18z" fill="#eabe70"/>
<path d="M1390 2192 c0 -11 41 -34 48 -27 4 4 -2 13 -12 21 -22 15 -36 18 -36 6z" fill="#eabe70"/>
<path d="M1963 2166 c0 -18 10 -32 38 -51 29 -19 39 -22 39 -11 0 8 -9 18 -21 21 -11 4 -29 20 -38 36 -18 30 -18 30 -18 5z" fill="#eabe70"/>
<path d="M577 2163 c-16 -15 -3 -19 61 -15 92 6 104 22 16 22 -39 0 -74 -3 -77 -7z" fill="#eabe70"/>
<path d="M1916 2125 c4 -8 12 -15 19 -15 19 0 92 -84 111 -127 8 -21 18 -74 21 -119 5 -67 2 -88 -15 -127 -15 -34 -27 -47 -41 -47 -12 0 -21 4 -21 9 0 4 -11 6 -25 3 -48 -9 -19 -27 47 -30 78 -4 141 11 168 40 32 35 26 169 -9 198 -3 3 -11 14 -17 24 -6 11 -16 22 -22 24 -17 5 -15 -25 3 -31 27 -11 47 -78 41 -136 -7 -55 -20 -91 -35 -91 -5 0 -7 10 -4 23 4 19 2 18 -12 -5 -18 -33 -73 -42 -60 -10 4 9 10 25 13 35 6 22 54 73 65 69 4 -1 7 12 7 28 0 36 -17 40 -26 5 -3 -13 -13 -30 -22 -37 -14 -11 -15 -9 -9 18 3 17 -1 62 -9 100 -8 38 -14 71 -14 73 0 2 9 -4 20 -14 11 -10 20 -13 20 -7 0 6 -39 45 -86 86 -83 73 -120 94 -108 61z" fill="#eabe70"/>
<path d="M1155 2119 c-3 -4 0 -11 6 -15 27 -17 48 -92 53 -192 4 -79 10 -113 27 -147 34 -69 107 -139 134 -129 24 10 18 23 -17 38 -18 7 -43 25 -55 39 -45 53 -56 89 -64 203 -5 84 -12 120 -29 153 -16 32 -19 46 -10 51 7 4 1 8 -14 8 -15 0 -29 -4 -31 -9z" fill="#eabe70"/>
<path d="M1050 2071 c0 -5 14 -11 30 -13 20 -3 30 0 30 9 0 8 -12 13 -30 13 -16 0 -30 -4 -30 -9z" fill="#eabe70"/>
<path d="M2126 2061 c-7 -10 33 -23 46 -15 5 3 6 10 3 15 -8 12 -42 12 -49 0z" fill="#eabe70"/>
<path d="M2477 2013 c-2 -27 -8 -56 -12 -65 -4 -11 -3 -18 4 -18 16 0 31 44 31 91 0 55 -16 49 -23 -8z" fill="#eabe70"/>
<path d="M2110 2021 c13 -25 33 -28 28 -4 -2 10 -11 19 -21 21 -16 3 -17 1 -7 -17z" fill="#eabe70"/>
<path d="M1126 2023 c-8 -9 14 -33 30 -33 8 0 14 4 14 10 0 12 -35 31 -44 23z" fill="#eabe70"/>
<path d="M2243 2023 c-7 -2 -13 -9 -13 -15 0 -12 41 -6 41 7 1 12 -11 15 -28 8z" fill="#eabe70"/>
<path d="M498 1998 c-21 -6 -38 -15 -38 -20 0 -6 10 -8 23 -4 12 3 39 9 60 12 20 4 40 11 43 15 7 12 -40 10 -88 -3z" fill="#eabe70"/>
<path d="M890 1976 c0 -19 35 -28 107 -26 62 1 142 -23 157 -49 11 -17 26 -13 26 7 0 20 -57 52 -91 52 -11 0 -29 4 -39 10 -12 6 -28 6 -49 -1 -25 -9 -40 -8 -71 5 -33 13 -40 13 -40 2z" fill="#eabe70"/>
<path d="M2166 1958 c31 -36 69 -99 102 -169 61 -132 82 -221 89 -379 5 -118 3 -146 -17 -225 -12 -49 -46 -140 -75 -201 -49 -103 -61 -120 -156 -215 -159 -159 -310 -234 -521 -260 -213 -26 -447 31 -611 147 -53 39 -57 40 -57 19 0 -8 6 -15 13 -15 8 0 22 -9 31 -19 10 -11 33 -27 52 -36 19 -9 34 -20 34 -25 0 -6 11 -10 25 -10 13 0 28 -8 34 -17 5 -10 13 -15 17 -11 3 4 16 2 28 -5 11 -6 30 -12 41 -13 11 -2 41 -9 66 -18 25 -9 67 -18 95 -21 71 -9 234 -6 269 4 17 5 43 12 58 15 l28 7 -27 -40 c-14 -22 -24 -46 -21 -53 2 -8 10 -1 18 17 16 38 59 85 76 85 7 0 21 4 31 9 9 5 28 13 42 19 66 27 100 43 105 52 3 6 13 10 21 10 8 0 23 8 34 18 11 9 29 25 40 35 12 10 24 15 29 13 4 -3 13 6 19 20 7 13 23 29 37 34 14 5 25 15 25 22 0 7 20 33 44 57 25 24 47 54 50 67 4 13 13 24 21 24 9 0 15 10 15 25 0 16 6 25 15 25 10 0 15 10 15 29 0 17 5 33 10 36 6 3 10 1 10 -6 0 -19 41 -80 50 -74 5 3 -5 26 -22 51 l-31 46 23 72 c12 39 23 75 24 80 1 5 12 -7 25 -27 12 -20 27 -37 32 -37 15 0 11 9 -22 55 -23 33 -29 47 -22 61 23 47 -6 352 -42 446 -8 21 -12 44 -9 53 3 8 1 15 -5 15 -14 0 -51 78 -45 95 3 7 -3 16 -15 20 -12 3 -21 15 -21 25 0 10 -12 26 -27 35 -26 17 -26 19 -8 26 18 6 17 8 -8 18 -43 17 -53 13 -31 -11z" fill="#eabe70"/>
<path d="M2316 1972 c-3 -5 -17 -8 -31 -7 -16 2 -25 -2 -25 -11 0 -10 8 -12 30 -7 23 4 34 1 45 -13 23 -30 19 -47 -9 -40 -14 3 -27 2 -31 -3 -9 -16 12 -22 39 -11 16 6 27 6 31 0 4 -6 10 -10 16 -10 10 0 -35 95 -50 104 -5 4 -12 2 -15 -2z" fill="#eabe70"/>
<path d="M945 1919 c-55 -19 -105 -42 -105 -49 0 -17 15 -18 49 -1 62 31 137 45 171 31 35 -15 65 -9 35 7 -31 16 -117 23 -150 12z" fill="#eabe70"/>
<path d="M1386 1919 c-11 -35 -13 -66 -7 -84 6 -14 10 -4 14 35 6 51 2 78 -7 49z" fill="#eabe70"/>
<path d="M476 1901 c-3 -5 5 -11 19 -13 14 -3 26 0 29 8 6 16 -39 20 -48 5z" fill="#eabe70"/>
<path d="M455 1850 c-19 -7 -19 -8 5 -18 25 -9 45 2 34 20 -6 10 -13 9 -39 -2z" fill="#eabe70"/>
<path d="M2386 1841 c-4 -7 -16 -9 -27 -6 -10 4 -19 2 -19 -3 0 -13 27 -23 45 -16 8 4 17 -1 21 -10 6 -16 24 -23 24 -8 0 4 -9 18 -19 31 -12 16 -20 20 -25 12z" fill="#eabe70"/>
<path d="M2605 1798 c8 -37 12 -44 21 -35 9 9 -6 67 -18 67 -6 0 -7 -13 -3 -32z" fill="#eabe70"/>
<path d="M421 1794 c-51 -14 -86 -32 -77 -41 2 -2 22 4 45 13 23 9 50 14 60 11 12 -3 22 1 26 11 3 8 4 16 3 17 -2 2 -27 -4 -57 -11z" fill="#eabe70"/>
<path d="M580 1801 c0 -5 6 -14 14 -20 8 -7 18 -26 21 -42 4 -16 11 -29 16 -29 14 0 11 15 -13 59 -20 38 -38 53 -38 32z" fill="#eabe70"/>
<path d="M2226 1802 c-4 -7 -3 -18 2 -25 5 -7 15 -36 21 -64 12 -59 -4 -165 -35 -226 -19 -38 -73 -97 -88 -97 -6 0 -38 14 -71 30 -49 24 -73 30 -132 30 -39 0 -74 -4 -77 -9 -3 -5 26 -9 65 -10 63 -1 82 -6 163 -46 50 -25 101 -46 113 -47 27 -4 35 16 8 20 -43 7 -44 11 -14 43 17 19 39 32 54 32 13 0 26 6 30 15 9 23 -3 27 -25 7 -25 -23 -25 -15 0 40 43 95 49 185 17 256 -8 19 -17 41 -19 49 -3 11 -6 11 -12 2z" fill="#eabe70"/>
<path d="M558 1748 c17 -18 37 -48 45 -67 12 -28 15 -30 19 -14 7 25 -55 113 -79 113 -13 0 -9 -8 15 -32z" fill="#eabe70"/>
<path d="M2335 1772 c6 -6 28 -14 50 -17 28 -5 37 -4 30 3 -5 6 -28 14 -50 17 -28 5 -37 4 -30 -3z" fill="#eabe70"/>
<path d="M985 1718 c10 -66 37 -111 81 -135 41 -23 162 -44 151 -27 -3 6 -22 11 -42 12 -92 6 -152 61 -169 155 -10 53 -30 48 -21 -5z" fill="#eabe70"/>
<path d="M1190 1750 c0 -19 33 -75 37 -63 2 6 -3 25 -12 42 -16 32 -25 39 -25 21z" fill="#eabe70"/>
<path d="M2590 1720 c-17 -41 -6 -50 14 -11 9 16 12 32 7 35 -5 3 -14 -8 -21 -24z" fill="#eabe70"/>
<path d="M2439 1722 c7 -13 6 -23 -1 -30 -9 -9 -8 -12 5 -12 9 0 17 6 17 14 0 22 -11 46 -21 46 -6 0 -6 -8 0 -18z" fill="#eabe70"/>
<path d="M350 1710 c-19 -11 -30 -19 -24 -20 15 0 84 29 84 35 0 10 -26 4 -60 -15z" fill="#eabe70"/>
<path d="M395 1670 c-3 -5 -13 -10 -22 -10 -17 0 -73 -37 -73 -49 0 -4 25 5 56 20 31 16 60 26 65 23 5 -3 9 2 9 10 0 18 -25 22 -35 6z" fill="#eabe70"/>
<path d="M803 1660 c-2 -17 2 -20 20 -14 28 8 30 11 22 23 -11 19 -41 12 -42 -9z" fill="#eabe70"/>
<path d="M2652 1642 c3 -12 -4 -38 -18 -62 -27 -48 -28 -50 -13 -50 5 0 15 14 20 30 6 17 15 30 20 30 13 0 11 58 -3 66 -7 5 -9 0 -6 -14z" fill="#eabe70"/>
<path d="M846 1625 c-22 -8 -51 -22 -65 -33 -29 -21 -91 -98 -91 -113 0 -20 19 -7 38 25 53 90 208 148 253 94 14 -18 18 -19 19 -7 1 45 -76 62 -154 34z" fill="#eabe70"/>
<path d="M390 1602 c-27 -19 -30 -23 -12 -19 16 4 25 0 30 -11 4 -12 8 -7 13 18 4 19 7 35 6 36 -1 0 -18 -10 -37 -24z" fill="#eabe70"/>
<path d="M667 1533 c-29 -45 -33 -63 -17 -63 6 0 10 5 10 10 0 6 10 24 21 39 12 16 19 35 17 42 -3 9 -15 -3 -31 -28z" fill="#eabe70"/>
<path d="M2290 1550 c-7 -14 -7 -20 0 -20 27 0 2 -128 -32 -160 -25 -23 -19 -35 15 -26 18 4 25 13 25 30 0 13 7 39 16 57 13 25 15 47 10 86 -7 56 -17 66 -34 33z" fill="#eabe70"/>
<path d="M2667 1535 c-3 -18 0 -33 6 -37 16 -10 20 12 9 42 -9 24 -9 24 -15 -5z" fill="#eabe70"/>
<path d="M388 1536 c-22 -16 -23 -27 -4 -20 11 4 14 -1 12 -21 -2 -21 -13 -32 -44 -47 -23 -10 -42 -23 -42 -28 0 -15 9 -12 37 10 14 11 34 20 44 20 16 0 19 8 19 50 0 28 -1 50 -2 50 -2 0 -11 -7 -20 -14z" fill="#eabe70"/>
<path d="M2484 1523 c2 -16 5 -43 5 -61 1 -20 5 -31 11 -27 7 4 8 21 4 43 -4 20 -7 45 -6 55 0 9 -4 17 -9 17 -5 0 -8 -12 -5 -27z" fill="#eabe70"/>
<path d="M2627 1459 c-10 -18 -16 -34 -13 -36 5 -5 46 47 46 58 0 19 -16 8 -33 -22z" fill="#eabe70"/>
<path d="M866 1449 c3 -6 34 -29 67 -50 52 -34 68 -39 119 -39 40 0 58 4 58 13 0 8 -15 11 -50 9 -41 -3 -59 2 -104 28 -31 17 -58 35 -61 41 -4 5 -13 9 -21 9 -9 0 -12 -5 -8 -11z" fill="#eabe70"/>
<path d="M363 1398 c-18 -11 -33 -24 -33 -29 0 -12 68 23 74 39 7 16 -3 14 -41 -10z" fill="#eabe70"/>
<path d="M2317 1383 c-2 -5 -4 -21 -5 -37 -3 -45 -49 -137 -90 -179 -68 -71 -167 -102 -179 -57 -3 11 -9 20 -13 20 -5 0 -12 9 -15 20 -7 23 -111 103 -126 98 -6 -2 10 -18 34 -36 24 -19 55 -51 68 -73 49 -82 79 -119 110 -134 22 -12 34 -14 42 -6 6 6 18 11 27 11 9 0 38 14 63 31 47 31 56 48 71 134 l6 30 -12 -27 c-8 -20 -19 -28 -37 -28 l-24 0 20 23 c11 12 29 38 38 57 10 19 21 37 25 40 11 8 20 109 10 115 -5 3 -10 2 -13 -2z m-38 -269 c9 -9 -36 -46 -84 -70 -54 -26 -93 -26 -115 1 -9 11 1 17 50 31 37 10 65 24 71 36 8 15 17 18 42 12 18 -3 34 -8 36 -10z" fill="#eabe70"/>
<path d="M393 1332 c2 -23 1 -45 -4 -48 -9 -5 11 -44 22 -44 9 0 -2 114 -13 125 -7 7 -8 -5 -5 -33z" fill="#eabe70"/>
<path d="M2085 1330 c-7 -11 -1 -15 62 -33 29 -9 63 -14 75 -11 13 3 30 6 37 8 8 1 16 7 18 12 2 5 -22 7 -52 6 -35 -3 -70 2 -95 12 -22 9 -42 11 -45 6z" fill="#eabe70"/>
<path d="M2490 1307 c0 -19 -3 -50 -6 -68 -4 -23 -2 -29 4 -19 13 21 21 109 11 116 -5 3 -9 -10 -9 -29z" fill="#eabe70"/>
<path d="M562 1243 c15 -15 31 -24 34 -20 10 10 -26 47 -45 47 -11 0 -8 -7 11 -27z" fill="#eabe70"/>
<path d="M2201 1214 c-13 -13 -21 -28 -17 -31 9 -9 49 32 45 46 -2 5 -15 -1 -28 -15z" fill="#eabe70"/>
<path d="M396 1221 c-4 -5 -1 -11 6 -13 6 -2 11 -18 10 -35 0 -19 5 -34 14 -37 17 -6 17 -6 3 50 -11 43 -22 54 -33 35z" fill="#eabe70"/>
<path d="M590 1194 c0 -19 34 -106 38 -95 6 17 -18 101 -29 101 -5 0 -9 -3 -9 -6z" fill="#eabe70"/>
<path d="M2647 1170 c-18 -29 -14 -38 9 -22 14 9 28 52 17 52 -5 0 -17 -13 -26 -30z" fill="#eabe70"/>
<path d="M2461 1125 c-14 -54 -14 -65 0 -42 17 29 28 76 19 82 -4 2 -13 -15 -19 -40z" fill="#eabe70"/>
<path d="M2592 1125 c-12 -7 -26 -16 -30 -20 -9 -10 50 4 61 15 15 14 -7 17 -31 5z" fill="#eabe70"/>
<path d="M1942 1124 c24 -54 44 -84 55 -84 16 0 -28 82 -47 88 -7 3 -11 1 -8 -4z" fill="#eabe70"/>
<path d="M2618 1085 c-32 -27 -34 -35 -13 -35 8 0 15 4 15 9 0 5 9 13 20 16 11 3 20 13 20 21 0 20 -11 17 -42 -11z" fill="#eabe70"/>
<path d="M618 1058 c23 -24 36 -21 26 6 -3 9 -16 16 -27 16 l-21 0 22 -22z" fill="#eabe70"/>
<path d="M1475 980 c0 -49 4 -79 10 -77 13 5 18 61 10 114 -10 68 -20 50 -20 -37z" fill="#eabe70"/>
<path d="M1717 1020 c3 -11 12 -20 20 -20 10 0 13 6 9 16 -3 9 -6 18 -6 20 0 2 -6 4 -14 4 -9 0 -12 -7 -9 -20z" fill="#eabe70"/>
<path d="M2030 996 c0 -9 14 -22 30 -31 17 -9 30 -11 30 -6 0 5 -13 19 -30 31 -24 17 -30 19 -30 6z" fill="#eabe70"/>
<path d="M1744 905 c-2 -90 9 -106 20 -31 7 45 -1 116 -13 116 -3 0 -7 -38 -7 -85z" fill="#eabe70"/>
<path d="M470 963 c-25 -9 -40 -25 -34 -35 3 -5 14 -2 25 8 28 25 35 9 14 -31 -19 -34 -17 -53 4 -40 6 3 11 15 11 26 0 27 15 23 30 -8 7 -16 14 -23 17 -17 3 8 -44 106 -50 103 -1 0 -9 -3 -17 -6z" fill="#eabe70"/>
<path d="M2107 938 c-8 -28 -5 -31 18 -14 10 7 15 18 11 24 -11 18 -23 14 -29 -10z" fill="#eabe70"/>
<path d="M2305 921 c-3 -6 3 -25 15 -42 l22 -30 -27 -39 c-14 -21 -35 -46 -46 -56 -10 -9 -19 -23 -19 -31 0 -7 -9 -13 -20 -13 -11 0 -20 -6 -20 -14 0 -7 -10 -20 -22 -29 -13 -8 -20 -18 -15 -23 9 -10 73 51 138 132 48 61 59 84 39 84 -5 0 -10 8 -10 18 -1 24 -26 56 -35 43z" fill="#eabe70"/>
<path d="M2510 913 c-36 -7 -50 -23 -19 -23 37 0 69 11 63 21 -3 5 -8 8 -12 8 -4 -1 -18 -4 -32 -6z" fill="#eabe70"/>
<path d="M1371 760 c-23 -45 -25 -50 -13 -50 12 0 53 78 43 84 -5 3 -18 -12 -30 -34z" fill="#eabe70"/>
<path d="M1989 744 c-11 -14 -10 -15 11 -12 13 1 25 9 28 16 5 17 -23 15 -39 -4z" fill="#eabe70"/>
<path d="M850 746 c0 -8 46 -56 54 -56 15 0 3 21 -24 40 -16 12 -30 19 -30 16z" fill="#eabe70"/>
<path d="M2058 648 c-5 -15 2 -45 19 -73 19 -32 25 -11 8 28 -8 20 -15 40 -14 43 2 12 -9 14 -13 2z" fill="#eabe70"/>
<path d="M1846 518 c-8 -33 -7 -88 2 -88 4 0 8 25 9 55 2 59 -1 68 -11 33z" fill="#eabe70"/>
<path d="M1787 458 c-5 -39 -3 -58 7 -47 8 9 14 89 6 89 -4 0 -10 -19 -13 -42z" fill="#eabe70"/>
<path d="M2190 485 c0 -11 12 -15 49 -15 28 0 53 5 56 11 11 17 0 20 -33 8 -22 -7 -36 -7 -51 1 -17 9 -21 8 -21 -5z" fill="#eabe70"/>
<path d="M975 353 c3 -21 11 -42 17 -48 7 -7 9 0 4 24 -3 18 -6 40 -6 47 0 8 -5 14 -11 14 -8 0 -9 -13 -4 -37z" fill="#eabe70"/>
<path d="M1950 319 c0 -4 14 -12 31 -18 22 -8 35 -7 50 2 29 18 24 22 -31 23 -28 1 -50 -2 -50 -7z" fill="#eabe70"/>
<path d="M880 292 c0 -11 51 -35 58 -27 7 7 -29 34 -45 35 -7 0 -13 -4 -13 -8z" fill="#eabe70"/>
<path d="M1882 291 c-10 -6 -10 -10 2 -20 19 -16 58 -11 64 8 3 10 0 11 -14 3 -13 -7 -21 -6 -29 4 -6 8 -15 10 -23 5z" fill="#eabe70"/>
<path d="M986 282 c12 -11 109 -47 110 -41 0 2 8 -2 17 -9 9 -8 17 -9 21 -3 8 12 -17 26 -61 36 -18 3 -35 11 -38 16 -4 5 -18 9 -33 9 -15 0 -22 -4 -16 -8z" fill="#eabe70"/>
</g>
</svg>