<?xml version="1.0" standalone="no"?>
<!DOCTYPE svg PUBLIC "-//W3C//DTD SVG 20010904//EN"
 "http://www.w3.org/TR/2001/REC-SVG-20010904/DTD/svg10.dtd">
<svg version="1.0" xmlns="http://www.w3.org/2000/svg"
 width="300.000000pt" height="442.000000pt" viewBox="0 0 300.000000 442.000000"
 preserveAspectRatio="xMidYMid meet">
<metadata>
Created by potrace 1.10, written by Peter Selinger 2001-2011
</metadata>
<g transform="translate(0.000000,442.000000) scale(0.050000,-0.050000)"
fill="#000000" stroke="none">
<path d="M3000 8711 c-379 -72 -970 -275 -1183 -407 -1978 -1218 -2299 -5317
-568 -7252 433 -484 1286 -841 2011 -840 1525 0 2746 2148 2619 4608 -121
2347 -1463 4160 -2879 3891z m411 -152 c16 -13 42 -18 60 -12 17 7 35 0 41
-16 6 -16 24 -24 40 -18 15 6 23 18 18 27 -10 16 91 -3 155 -30 19 -8 35 -29
35 -47 1 -27 4 -28 18 -5 16 24 24 23 52 -5 18 -18 42 -28 53 -21 11 6 57 -13
103 -44 46 -30 88 -53 92 -50 5 3 17 -9 26 -27 10 -17 27 -27 37 -20 33 20 67
-13 36 -35 -19 -13 -13 -15 18 -6 26 7 45 4 45 -9 0 -11 15 -21 33 -21 19 0
28 -5 22 -12 -13 -12 124 -125 202 -167 24 -12 43 -32 43 -44 0 -12 54 -75
120 -140 66 -65 120 -132 120 -149 0 -17 9 -25 20 -18 11 7 20 -1 20 -17 0
-16 8 -33 18 -36 19 -7 202 -269 202 -289 0 -7 17 -36 37 -65 208 -296 513
-1088 574 -1493 7 -43 15 -84 19 -91 10 -15 66 -347 80 -469 6 -55 15 -136 21
-180 47 -387 18 -1146 -61 -1600 -16 -88 -33 -187 -39 -220 -29 -162 -103
-460 -130 -520 -10 -22 -29 -76 -41 -120 -63 -218 -276 -700 -389 -880 -148
-236 -263 -407 -302 -450 -25 -27 -91 -98 -147 -157 -56 -59 -102 -112 -102
-117 0 -14 -87 -85 -105 -85 -9 -1 -60 -44 -115 -96 -141 -136 -158 -149 -181
-135 -11 7 -18 6 -14 -4 3 -9 -3 -18 -12 -20 -9 -2 -29 -20 -44 -40 -15 -20
-28 -29 -28 -20 -1 9 -15 3 -33 -15 -17 -17 -39 -27 -48 -21 -10 6 -23 2 -30
-10 -7 -11 -47 -20 -90 -20 -43 0 -83 -9 -90 -21 -9 -13 6 -16 43 -8 44 9 50
7 27 -9 -30 -22 -165 -65 -220 -71 -17 -2 -41 -9 -53 -16 -82 -51 -786 -15
-826 42 -6 8 -51 18 -101 21 -49 3 -97 16 -105 29 -10 17 -14 16 -15 -2 0 -14
-7 -24 -15 -22 -8 2 -30 -3 -48 -11 -166 -73 -721 474 -1074 1057 -985 1629
-919 4718 132 6131 424 570 672 780 952 804 219 19 270 28 304 57 22 18 29 18
29 0 0 -16 15 -13 44 8 54 38 104 41 84 6 -8 -14 2 -10 24 8 63 54 405 81 459
36z m-2099 -991 c-7 -17 -12 -45 -12 -61 0 -16 -7 -25 -16 -19 -9 5 -27 -9
-41 -31 -14 -23 -16 -35 -5 -28 13 8 17 1 10 -18 -7 -17 -20 -26 -30 -20 -10
6 -12 -2 -6 -18 6 -17 -9 -50 -33 -74 -24 -24 -45 -64 -46 -89 -2 -26 -10 -42
-18 -37 -9 5 -21 -18 -28 -51 -6 -34 -20 -56 -29 -50 -10 5 -19 -1 -21 -16 -1
-14 -4 -48 -7 -75 -3 -27 -15 -53 -27 -57 -13 -4 -23 -29 -23 -54 0 -26 -8
-53 -19 -59 -10 -7 -15 -30 -11 -52 4 -22 0 -35 -10 -29 -18 11 -34 -31 -49
-121 -3 -23 -20 -38 -40 -36 -23 2 -28 -4 -16 -16 22 -22 -4 -156 -46 -242
-16 -33 -19 -55 -7 -55 11 0 15 -9 8 -20 -7 -12 -23 -14 -36 -6 -15 8 -13 1 3
-19 29 -36 13 -84 -20 -63 -13 8 -12 -4 2 -30 12 -23 14 -42 4 -42 -27 0 -69
-128 -45 -136 11 -4 7 -35 -10 -75 -15 -37 -28 -100 -28 -140 0 -39 -7 -67
-15 -62 -9 5 -17 -46 -18 -114 -1 -67 -7 -136 -13 -153 -11 -27 -18 -79 -44
-310 -8 -74 -12 -218 -8 -325 1 -25 1 -239 -1 -476 -1 -237 3 -440 9 -450 7
-10 16 -79 21 -154 5 -74 14 -155 20 -180 5 -25 1 -45 -11 -45 -11 0 -20 -13
-20 -30 0 -37 23 -38 60 -5 24 21 24 20 4 -8 -18 -23 -19 -47 -4 -86 26 -68
26 -117 0 -101 -11 7 -20 3 -20 -9 0 -11 14 -21 30 -21 17 0 30 -8 30 -18 0
-10 5 -35 12 -55 10 -31 8 -32 -10 -7 -31 43 -27 10 10 -76 17 -41 34 -101 37
-134 3 -33 13 -78 22 -100 10 -22 17 -68 17 -104 0 -35 8 -58 19 -52 10 6 14
-1 9 -16 -5 -15 7 -76 28 -134 20 -58 31 -116 23 -128 -8 -14 -4 -16 13 -6 19
12 23 7 14 -16 -7 -18 2 -47 19 -64 17 -17 33 -42 35 -55 18 -103 125 -355
151 -355 20 0 13 -63 -11 -105 -8 -14 -7 -18 2 -10 22 20 70 -22 70 -61 0 -16
22 -60 50 -96 27 -36 50 -79 50 -97 0 -17 18 -49 40 -71 22 -22 40 -53 40 -70
0 -16 9 -30 20 -30 11 0 20 -17 20 -38 0 -20 23 -53 52 -71 28 -19 47 -39 41
-44 -21 -22 -147 57 -180 114 -20 33 -44 54 -55 48 -10 -7 -17 -5 -15 5 3 9
-15 48 -39 86 -24 39 -44 63 -44 54 0 -8 -13 -4 -28 10 -15 14 -24 30 -20 34
4 5 -2 20 -15 35 -12 15 -14 27 -5 27 9 0 -4 15 -30 33 -44 30 -45 35 -14 58
30 22 29 25 -8 35 -22 6 -54 43 -71 83 -17 40 -38 68 -48 62 -9 -6 -13 7 -7
29 6 22 1 40 -12 40 -12 0 -21 7 -20 15 7 41 -5 65 -30 65 -18 0 -25 14 -18
40 6 23 1 40 -13 40 -15 0 -19 15 -11 41 9 27 5 38 -13 35 -16 -4 -26 10 -24
33 2 21 -11 50 -30 63 -18 14 -26 31 -18 40 8 8 5 26 -8 41 -12 15 -14 27 -4
27 9 0 5 8 -10 18 -15 9 -28 40 -30 69 -2 29 -15 53 -29 53 -15 0 -22 7 -16
16 5 9 -3 41 -18 70 -25 48 -24 54 6 54 26 0 23 7 -13 32 -33 24 -39 38 -23
57 15 19 13 29 -7 37 -16 6 -25 32 -22 62 3 29 -1 52 -9 52 -9 0 -16 11 -18
25 -1 14 -6 57 -10 96 -4 39 -14 83 -22 96 -9 14 -11 37 -5 53 6 15 -7 51 -30
79 -22 28 -30 51 -18 51 11 0 21 14 21 30 0 17 -9 30 -20 30 -11 0 -20 41 -20
90 0 50 -8 90 -18 90 -10 0 -14 16 -9 36 5 19 -1 93 -15 165 -13 71 -23 181
-23 244 0 63 -8 115 -19 115 -10 0 -13 9 -6 20 18 29 46 220 31 211 -18 -11
-10 629 8 687 10 31 8 43 -6 34 -21 -13 -1 83 27 127 7 12 3 21 -8 21 -11 0
-8 23 8 54 19 37 22 62 8 78 -11 14 -12 29 -3 35 9 5 18 39 21 74 3 36 11 75
19 87 7 12 11 48 8 79 -4 35 1 53 14 45 11 -7 25 -4 32 6 6 10 -3 23 -19 29
-17 7 -24 25 -18 42 7 17 19 26 28 21 9 -6 11 9 5 33 -7 28 -4 39 10 30 13 -8
17 2 11 27 -6 22 -4 55 5 75 19 43 19 41 39 115 9 33 26 67 38 75 15 9 13 14
-5 15 -22 0 -23 6 -3 30 13 16 19 44 12 61 -7 20 -4 26 12 17 15 -10 19 -4 11
16 -7 17 -2 41 11 54 12 12 13 22 3 22 -10 0 -6 9 9 18 16 10 31 44 34 75 4
31 16 60 28 64 15 5 13 17 -4 39 -20 24 -20 28 -1 17 15 -10 25 -4 25 13 0 16
13 40 29 53 16 13 24 36 19 50 -6 14 8 58 29 96 22 39 35 77 28 83 -6 7 4 12
23 12 19 0 29 9 21 21 -18 31 8 123 32 108 11 -6 25 16 32 50 6 33 20 61 31
61 19 0 86 139 80 165 -2 8 10 15 26 15 17 0 31 9 33 20 1 11 3 27 5 35 4 31
88 125 110 125 12 0 20 7 17 15 -8 28 73 145 101 145 18 0 24 -12 16 -32z"/>
<path d="M3090 8179 c-170 -46 -247 -49 -263 -9 -30 79 -202 -37 -213 -146
-10 -89 -130 -184 -168 -132 -18 25 -38 29 -80 17 -31 -9 -72 -16 -92 -15 -23
1 -32 -9 -26 -27 6 -15 4 -27 -5 -27 -27 0 -177 -147 -190 -186 -7 -20 -21
-31 -31 -25 -11 6 -26 1 -34 -12 -9 -14 -6 -18 9 -9 13 8 23 5 23 -7 0 -11
-11 -21 -25 -21 -32 0 -33 -130 -1 -162 42 -43 -67 -181 -136 -171 -53 9 -178
-73 -178 -117 0 -9 -22 -46 -50 -82 -27 -36 -50 -75 -50 -87 0 -11 -10 -21
-21 -21 -12 0 -16 -9 -9 -20 7 -11 2 -20 -10 -20 -12 0 -17 -9 -10 -20 7 -11
-1 -45 -16 -75 -83 -158 -93 -199 -61 -238 16 -20 24 -23 16 -7 -11 22 -5 21
22 -4 65 -62 19 -175 -87 -214 -68 -24 -89 -43 -98 -87 -6 -30 -19 -55 -30
-55 -10 0 -13 -9 -6 -20 7 -11 4 -20 -5 -20 -10 0 -17 -20 -14 -45 2 -25 -5
-55 -14 -68 -18 -22 -34 -75 -47 -157 -4 -22 -8 -44 -11 -50 -2 -5 -6 -19 -8
-30 -3 -11 -7 -24 -10 -30 -4 -9 -8 -28 -23 -140 -13 -91 5 -139 63 -174 67
-39 68 -132 2 -180 -18 -14 -44 -34 -57 -45 -13 -12 -33 -21 -44 -21 -33 0
-54 -212 -68 -680 -5 -181 109 -366 154 -249 7 20 26 22 69 10 33 -10 92 -14
131 -11 40 4 72 0 72 -10 0 -9 -29 -17 -65 -18 -132 -3 -205 -31 -212 -80 -4
-30 -27 -55 -63 -68 -56 -21 -98 -161 -56 -186 8 -5 6 -31 -4 -58 -11 -28 -11
-53 -1 -60 10 -6 18 -35 17 -65 -1 -30 4 -91 11 -135 8 -44 18 -119 24 -167 5
-48 19 -105 31 -126 11 -21 15 -58 8 -83 -8 -28 -6 -35 5 -19 12 18 25 5 45
-44 15 -38 39 -74 53 -80 15 -5 27 -24 27 -42 0 -17 9 -26 20 -19 11 7 20 3
20 -8 0 -11 -14 -28 -31 -37 -39 -22 -55 -137 -26 -191 18 -32 15 -46 -11 -65
-30 -22 -29 -25 10 -35 34 -9 41 -23 33 -62 -5 -28 -3 -47 5 -42 25 15 77
-148 69 -215 -5 -40 -2 -55 9 -38 12 19 27 7 58 -45 25 -42 33 -72 20 -72 -12
0 -16 -7 -8 -15 9 -8 25 -15 38 -15 47 0 156 -173 147 -233 -5 -31 -1 -62 9
-68 10 -6 18 -34 18 -61 0 -35 8 -46 25 -35 16 9 14 0 -4 -24 -16 -22 -22 -33
-13 -25 21 18 72 -32 72 -70 0 -16 14 -40 30 -54 17 -14 30 -36 30 -49 0 -13
20 -43 45 -66 25 -24 54 -53 65 -64 64 -69 182 -161 204 -161 14 0 26 -13 26
-30 0 -16 8 -30 17 -30 10 0 23 -25 29 -55 20 -100 273 -325 364 -325 15 0 36
-15 46 -33 17 -29 26 -28 86 18 52 39 78 47 113 33 34 -12 45 -10 45 11 0 16
8 34 18 40 10 6 14 -5 9 -25 -15 -59 58 -103 222 -134 2014 -386 3338 3081
2232 5840 -459 1144 -1402 1816 -2231 1589z m210 -60 c0 -11 -22 -19 -50 -19
-57 0 -68 33 -15 45 41 9 65 0 65 -26z m-212 -114 c44 -279 261 -1577 312
-1865 35 -192 68 -381 74 -420 5 -38 55 -199 109 -357 97 -279 107 -343 52
-343 -40 0 -283 743 -268 818 11 58 -123 472 -565 1738 -78 224 -142 410 -142
415 0 35 176 78 353 86 59 3 64 -3 75 -72z m740 43 c34 -13 44 -78 14 -97 -23
-14 -162 44 -162 68 0 34 89 52 148 29z m-317 -55 l139 -47 13 -1078 c13
-1031 16 -1092 65 -1392 29 -173 52 -319 52 -326 0 -7 10 -6 23 2 16 10 19
103 9 338 -14 337 2 645 30 550 8 -27 15 354 16 847 2 785 -2 895 -27 874 -33
-27 -61 41 -48 112 11 57 77 60 77 3 0 -34 40 -77 151 -162 82 -64 146 -123
141 -132 -6 -8 -60 -365 -120 -793 -61 -429 -120 -833 -131 -899 -11 -66 -17
-232 -12 -370 6 -137 10 -276 10 -308 2 -112 20 -38 51 199 75 574 128 816
129 581 1 -200 18 -123 121 570 100 672 119 863 78 793 -11 -20 -29 -30 -40
-24 -28 17 1 252 36 292 25 29 21 35 -34 54 -73 25 -63 63 16 63 103 -1 119
-57 74 -261 -11 -47 3 -75 79 -169 168 -206 171 -132 -29 -740 -97 -297 -205
-625 -240 -730 -35 -104 -80 -301 -100 -436 -20 -136 -39 -249 -43 -252 -12
-9 -282 -54 -286 -48 -27 42 -119 761 -123 966 -5 203 -34 439 -137 1080 -72
451 -131 826 -131 834 0 8 -15 9 -34 2 -31 -12 -31 -10 -5 19 39 45 67 43 230
-12z m583 -33 c20 0 86 -95 86 -123 0 -66 -37 -58 -129 29 -110 104 -118 139
-26 113 36 -11 67 -19 69 -19z m-1488 -545 c142 -397 608 -1689 698 -1935 22
-60 87 -186 145 -280 158 -256 156 -252 119 -289 -30 -30 -40 -20 -122 123
-220 380 -286 513 -264 527 24 15 -82 196 -760 1298 l-362 589 65 71 c145 159
305 321 317 321 7 0 81 -191 164 -425z m1874 232 c0 -32 -32 -36 -50 -7 -7 12
-21 15 -31 9 -22 -13 -25 13 -7 60 15 39 88 -13 88 -62z m155 -141 c65 -63 68
-71 45 -126 -27 -66 -62 -76 -100 -30 -13 16 -34 24 -46 16 -13 -8 -16 0 -9
19 7 18 3 36 -9 40 -13 4 -25 20 -27 36 -3 16 -12 46 -20 67 -11 27 -9 34 8
24 12 -8 23 -6 23 3 0 40 70 14 135 -49z m133 -321 c-3 -79 -58 -210 -161
-381 -68 -114 -73 -101 -27 77 60 235 77 282 112 322 32 34 32 37 1 37 -33 0
-44 23 -21 45 39 39 98 -23 96 -100z m-2217 -985 c338 -533 636 -1006 661
-1051 26 -45 106 -133 177 -196 142 -125 144 -128 105 -181 -23 -32 -44 -16
-225 168 -181 184 -251 268 -192 232 133 -82 -142 193 -657 658 -501 452 -830
756 -837 773 -16 40 304 618 329 593 13 -14 301 -462 639 -996z m2409 821 c0
-20 15 -42 33 -49 18 -7 27 -19 20 -25 -7 -7 1 -23 18 -35 32 -23 -9 -112 -51
-112 -41 0 -119 107 -97 134 16 19 15 26 -2 26 -15 0 -11 20 12 59 36 62 67
63 67 2z m-180 -281 c44 -87 80 -171 80 -186 0 -26 -593 -1088 -638 -1142 -24
-28 -81 -204 -82 -249 0 -61 51 1 157 189 62 110 124 218 136 239 37 60 49 24
14 -42 -32 -61 -147 -350 -147 -369 2 -32 316 517 532 929 76 145 130 228 137
210 47 -126 111 -331 111 -355 0 -25 -706 -783 -745 -801 -58 -25 -78 -69 -45
-101 30 -29 37 -27 88 28 84 91 202 199 202 186 0 -19 -202 -265 -232 -282
-37 -21 -35 -64 5 -126 18 -28 41 -97 50 -153 10 -69 33 -120 71 -160 52 -53
53 -59 21 -78 -20 -11 -31 -28 -24 -38 6 -11 2 -19 -9 -19 -11 0 -19 -34 -17
-75 2 -41 -3 -86 -12 -100 -10 -16 -4 -25 15 -25 16 0 35 -9 42 -20 7 -11 0
-15 -15 -9 -31 12 -75 -68 -75 -134 0 -22 -19 -67 -42 -100 -23 -33 -39 -62
-35 -65 217 -178 689 -560 749 -606 l82 -64 -57 -215 c-55 -211 -55 -216 -19
-256 119 -129 183 -291 115 -291 -30 0 -205 312 -197 351 3 17 -14 64 -39 105
-154 256 -663 966 -589 822 8 -15 -11 1 -43 37 -57 64 -60 65 -117 36 -77 -41
-114 -39 -208 9 -349 178 -381 976 -50 1253 49 42 90 88 90 102 0 38 281 891
301 912 8 9 -10 -81 -40 -200 -131 -519 -83 -437 137 234 88 269 179 554 203
634 52 177 42 178 139 -15z m314 -93 c20 -51 -93 -241 -189 -320 -103 -84
-102 -85 -15 104 39 84 70 157 70 164 0 62 113 106 134 52z m145 -206 c12 -21
15 -52 9 -70 -8 -20 -1 -31 20 -31 18 0 33 -11 35 -25 2 -14 4 -34 6 -45 1
-11 9 -32 19 -46 9 -15 12 -31 7 -35 -4 -5 -20 14 -35 41 -31 58 -51 63 -77
17 -30 -55 -90 79 -74 165 14 76 58 90 90 29z m-2899 -859 c590 -520 801 -717
794 -742 -7 -28 25 -48 159 -99 157 -60 167 -67 167 -122 0 -77 -5 -76 -256
42 -201 95 -211 103 -168 126 62 34 45 41 -946 422 -938 359 -849 271 -729
725 46 174 88 337 94 362 13 60 -58 117 885 -714z m3008 453 c26 -42 -148
-231 -248 -269 -84 -32 -77 -6 51 166 113 153 152 174 197 103z m93 -244 c11
6 19 -7 19 -30 0 -22 -11 -42 -25 -42 -14 -1 -5 -10 20 -20 25 -10 45 -29 45
-43 -1 -18 -6 -17 -20 4 -16 24 -19 21 -20 -16 0 -26 9 -41 20 -34 12 7 20
-13 20 -50 0 -48 -8 -60 -35 -56 -51 9 -108 82 -78 101 17 12 15 23 -8 40 -29
24 -30 46 -7 155 10 44 13 46 31 14 11 -19 28 -30 38 -23z m-245 -261 c21
-110 33 -206 26 -212 -42 -42 -792 -419 -815 -410 -20 8 88 138 342 414 204
221 371 412 371 424 0 77 43 -46 76 -216z m300 -154 c46 -46 23 -78 -101 -137
-252 -119 -282 -49 -45 108 89 59 111 64 146 29z m-3686 -326 c286 -102 684
-242 885 -311 l365 -124 0 -66 0 -66 -125 -11 c-69 -7 -453 -30 -855 -52 -401
-22 -770 -45 -818 -52 l-88 -11 13 266 c26 556 36 640 71 627 18 -7 266 -97
552 -200z m3473 -215 l7 -182 -100 -5 c-327 -17 -545 -32 -582 -41 -39 -9 -71
39 -77 118 0 8 161 103 359 211 l360 196 13 -57 c7 -32 16 -140 20 -240z m297
245 c0 -27 -11 -33 -43 -25 -30 8 -39 4 -29 -12 8 -13 23 -19 32 -13 24 15 40
-17 51 -100 6 -51 0 -75 -21 -83 -16 -6 -25 -19 -20 -28 26 -40 -31 -35 -58 5
-38 60 -67 247 -35 228 13 -8 23 -2 23 13 0 39 40 74 72 61 16 -6 28 -26 28
-46z m-1000 -209 c0 -6 -27 -24 -60 -41 -63 -33 -86 -7 -25 28 37 22 85 29 85
13z m976 -215 c67 -67 30 -96 -125 -96 -82 0 -153 7 -158 16 -23 36 28 69 129
83 60 9 113 17 119 19 6 1 22 -9 35 -22z m-2127 -187 c34 -35 37 -50 19 -97
-19 -49 -398 -47 -417 2 -21 56 40 92 183 106 75 8 147 16 160 17 13 2 37 -11
55 -28z m1864 -215 l-13 -246 121 -25 c96 -20 125 -35 143 -74 31 -68 12 -79
-93 -49 -83 23 -125 54 -211 155 -17 19 -177 85 -355 145 l-324 110 12 80 c7
44 14 82 15 84 2 3 532 52 680 63 36 3 37 -9 25 -243z m288 91 c-7 -53 -11
-129 -8 -169 5 -83 -33 -113 -70 -54 -13 21 -16 38 -7 38 10 0 17 14 17 30 0
17 -6 30 -13 30 -7 0 -13 13 -13 28 0 17 12 24 31 16 27 -9 28 -6 7 19 -13 17
-19 37 -11 44 7 7 2 13 -11 13 -41 0 -24 73 22 94 64 30 70 20 56 -89z m-2492
-120 c10 -37 5 -60 -12 -71 -129 -76 -1763 -955 -1767 -950 -11 12 -88 568
-101 729 l-13 164 87 11 c48 6 452 44 897 83 446 39 819 74 830 78 48 18 67 8
79 -44z m370 16 c12 -21 21 -48 21 -59 0 -27 -248 -152 -332 -168 -83 -16
-269 -103 -420 -198 -67 -42 -127 -76 -132 -76 -12 0 -422 -227 -589 -327 -68
-40 -128 -73 -133 -73 -6 0 -125 -68 -265 -152 -196 -116 -258 -145 -271 -125
-35 55 -33 56 232 180 99 46 194 95 210 109 17 13 107 64 200 113 330 173 529
283 597 329 38 25 81 46 97 46 16 0 48 14 72 31 24 17 104 69 177 115 73 46
203 131 289 189 169 114 215 126 247 66z m1411 -260 c209 -68 382 -127 386
-130 6 -7 -31 -327 -47 -403 -6 -33 19 -64 111 -137 111 -86 148 -151 103
-179 -23 -14 -290 260 -276 284 7 11 -142 148 -332 305 -190 157 -357 297
-373 311 -32 29 -13 97 23 82 14 -5 196 -65 405 -133z m-1339 57 c12 -40 -237
-336 -324 -384 -84 -47 -624 -607 -839 -871 -21 -26 -60 -72 -88 -103 -27 -30
-68 -76 -90 -103 -22 -26 -119 -140 -215 -253 -97 -114 -190 -229 -208 -256
-30 -46 -36 -48 -65 -19 -39 39 -46 29 228 326 330 356 1148 1283 1253 1419
205 264 316 343 348 244z m-334 -96 c-4 -10 -342 -395 -751 -855 -410 -460
-758 -855 -774 -877 -16 -22 -33 -35 -38 -30 -30 32 -265 736 -250 750 3 4
344 200 756 435 413 236 809 466 880 511 126 79 190 103 177 66z m403 -32 c21
-25 2 -74 -107 -288 -73 -142 -133 -273 -133 -291 0 -18 -53 -219 -119 -447
-143 -500 -493 -1804 -512 -1909 -7 -41 -19 -75 -27 -75 -21 0 -164 100 -282
198 -60 50 -113 93 -117 95 -4 3 197 417 447 921 475 957 591 1209 539 1165
-27 -22 -107 -159 -304 -519 -81 -148 -650 -1288 -695 -1393 -28 -64 -46 -82
-81 -80 -25 2 -41 10 -36 18 5 8 -1 15 -14 15 -13 0 -5 16 18 35 23 19 133
215 245 435 111 220 306 603 433 850 128 248 324 634 437 858 225 448 250 481
308 412z m112 -90 c11 -11 76 -26 144 -33 125 -13 136 -19 109 -59 -44 -66
-159 -51 -244 31 -47 45 -72 81 -57 81 16 0 37 -9 48 -20z m837 -630 c142
-209 294 -428 337 -487 l79 -108 -73 -166 c-87 -200 -86 -176 -12 -332 70
-149 74 -190 20 -207 -22 -7 -40 -26 -40 -43 0 -17 -10 -23 -23 -15 -16 10
-18 5 -5 -14 23 -36 24 -65 2 -80 -15 -11 -28 -53 -32 -105 -1 -10 -15 -12
-31 -6 -19 7 -25 1 -18 -18 8 -22 2 -26 -24 -16 -23 9 -31 6 -22 -8 7 -11 -1
-26 -18 -33 -18 -6 -26 -21 -19 -32 7 -11 4 -20 -6 -20 -9 0 -19 36 -21 80 -1
47 6 80 19 80 12 0 17 13 12 28 -7 17 5 32 29 39 23 6 35 19 29 30 -7 11 -1
28 14 37 15 9 33 32 40 52 8 20 23 31 34 24 43 -27 39 50 -11 208 -28 91 -47
178 -41 193 23 62 -429 1163 -468 1139 -14 -9 -160 273 -160 307 0 76 54 54
100 -42 28 -58 167 -276 309 -485z m-861 510 c-1 -27 -35 -171 -74 -320 -76
-285 -98 -474 -228 -1913 l-54 -602 -101 -13 c-136 -16 -291 -15 -291 2 0 7
117 459 259 1005 226 864 313 1227 269 1121 -7 -16 -24 -57 -38 -90 -37 -86
-100 -277 -150 -447 -69 -238 -69 -148 1 110 35 130 76 295 91 365 23 102 167
630 221 808 17 58 98 36 95 -26z m1802 0 c-7 -11 -3 -20 9 -20 11 0 22 11 23
25 1 14 8 3 16 -25 15 -52 -11 -193 -43 -234 -10 -13 -13 -33 -7 -43 7 -10 -1
-24 -17 -30 -19 -7 -25 -1 -18 18 8 21 2 26 -21 17 -17 -7 -33 -5 -34 5 -1 9
-4 37 -6 61 -3 24 3 39 13 33 10 -6 16 24 13 69 -4 45 5 94 20 112 29 35 72
45 52 12z m-1372 -200 c13 -71 59 -215 102 -320 43 -104 164 -398 269 -652
224 -542 214 -476 99 -653 l-92 -143 33 -155 c34 -157 31 -197 -18 -197 -44 0
-55 57 -61 320 -8 298 -242 1440 -290 1410 -42 -26 -157 495 -119 541 34 41
46 18 77 -151z m-310 143 c6 -10 -1 -133 -16 -275 -24 -238 17 -1422 75 -2131
l9 -113 -157 -87 c-142 -78 -158 -93 -159 -147 -1 -87 -27 -118 -86 -103 l-50
13 41 110 c30 82 47 105 65 90 33 -27 37 5 99 710 28 319 60 679 71 801 26
282 25 375 0 359 -43 -26 1 707 46 765 22 29 47 32 62 8z m-809 -504 c-133
-257 -386 -753 -562 -1103 -175 -350 -323 -636 -327 -636 -43 0 -350 527 -325
557 16 18 199 231 406 473 207 242 480 556 605 698 125 142 274 316 331 387
156 195 135 132 -128 -376z m970 246 c11 -181 53 -419 184 -1040 l171 -805
-84 -100 c-46 -55 -104 -116 -128 -135 -41 -32 -44 -46 -31 -155 14 -123 -20
-199 -67 -152 -29 29 -7 301 25 322 24 14 23 108 -6 643 -43 788 -54 919 -76
905 -10 -6 -16 -4 -13 6 2 9 -6 75 -19 146 -28 153 -50 568 -31 587 46 47 62
1 75 -222z m1434 -362 c22 -5 -31 -180 -68 -223 -39 -45 -46 -69 -15 -50 25
16 26 -30 1 -70 -15 -24 -22 -20 -37 20 -10 28 -26 48 -35 45 -10 -3 -21 22
-25 57 -3 34 1 58 10 52 9 -5 18 23 20 63 2 40 13 75 25 79 12 4 17 14 12 22
-7 11 63 14 112 5z m-251 -694 c-6 -16 -2 -29 9 -29 29 0 23 -33 -12 -69 -18
-17 -25 -31 -17 -31 9 0 -1 -12 -21 -27 -21 -15 -31 -36 -24 -48 15 -24 -24
-58 -65 -56 -16 0 -33 14 -38 29 -6 19 -1 22 18 11 22 -13 22 -9 -1 19 -35 44
-53 142 -22 123 12 -8 21 1 21 18 0 18 13 37 28 43 16 6 23 27 17 50 -7 28 -2
36 21 27 16 -6 37 -1 45 12 20 32 57 -32 41 -72z m-703 -1054 c-17 -55 -45
-74 -103 -75 -32 0 -41 -9 -33 -30 8 -22 -2 -30 -37 -30 -26 0 -57 -9 -69 -21
-14 -14 -20 -11 -20 9 0 16 5 29 11 29 40 -5 63 6 52 23 -7 12 -23 15 -34 7
-14 -8 -16 -4 -7 11 8 14 29 20 45 13 19 -7 27 -2 22 14 -4 14 18 52 50 85 33
33 53 47 46 30 -10 -21 -6 -20 11 3 35 47 85 -5 66 -68z"/>
<path d="M4015 4800 c-108 -84 -159 -335 -106 -520 17 -60 35 -141 40 -178 15
-129 137 -236 240 -211 101 26 228 209 144 209 -179 0 -235 521 -73 683 l57
57 -126 0 c-95 0 -138 -10 -176 -40z m137 -720 c92 0 93 -1 63 -45 -44 -67
-102 -65 -183 6 -82 72 -97 120 -23 71 28 -18 91 -32 143 -32z"/>
</g>
</svg>
